<svg version="1.2" xmlns="http://www.w3.org/2000/svg" viewBox="0 0 2229 1619" width="2229" height="1619">
	<title>background-svg</title>
	<defs>
		<clipPath clipPathUnits="userSpaceOnUse" id="cp1">
			<path d="m-267-1122h2495.9v2740.7h-2495.9z" />
		</clipPath>
	</defs>
	<style>
		.s0 { fill: #525f7b } 
		.s1 { opacity: .8;fill: none;stroke: #525f7b;stroke-width: 4 } 
		.s2 { opacity: .4;fill: #b3bcd0 } 
		.s3 { opacity: .7;fill: #525f7b } 
		.s4 { opacity: .6;fill: #020b44 } 
		.s5 { opacity: .8;fill: #525f7b } 
		.s6 { fill: #b3bcd0 } 
		.s7 { fill: #020b44 } 
	</style>
	<g id="Clip-Path" clip-path="url(#cp1)">
		<g id="Layer">
			<path id="Layer" class="s0" d="m1399-308.1c0 0-143 16-580 646.8c-130 187.7-191.4-21.1-370 125c-178.6 146.1-436.3-346.2-313.2-657.2c123.1-311-348.9-508.9-96-612.3c252.9-103.4 178-420.4 523.7-281.6c345.7 138.8 944 361.8 835.5 779.3z" />
			<path id="Layer" class="s1" d="m1149-152.1c0 0-171.5 260.5-293 303c-143.9 50.3-386-173-664 22c-278 195-433 100-457-143" />
			<path id="Layer" class="s2" d="m2227 1333.9c-24 333-800 222-951 273c-151 51-321-77-435-127c-114-50-209-176-199-220c10-44 117-77 267-66c150 11 161-123 161-123c0 0 78-184 379-377c301-193 592 134 592 134c0 0 210 173 186 506z" />
			<path id="Layer" class="s2" d="m1913-130.1c0 0 183 257 97 500c-86 243-486 171-669 137c-183-34-94-111-170-103c-76 8-199 132-278 20c-79-112 445.9-504.2 458-511c434-244 562-43 562-43z" />
			<g id="Layer" style="opacity: .7">
				<path id="Layer" class="s3" d="m1757 438.9c80-0.7 166.4 10.5 232.7 58.9c48 35.1 52 95.9 44 150.2c-9.2 62.4-14.6 125.4-26.1 187.5c-9.2 49.6-30.4 97.1-80.9 114.3c-49.8 16.9-105.8 8-157 4.6c-67.3-4.5-134.3-13.4-201.1-22.8c-76.4-10.7-113-47.7-109-126.9c3-58.7 13.3-116.6 25.8-173.9c9.5-43.6 14.3-106.1 48.3-138.9c51.1-49.3 137.4-52.3 207-53c5.6 0 11-0.1 16.3 0z" />
			</g>
			<path id="Layer" class="s4" d="m-204.4 1068.8c10.1-51.2 19.8-115 59.9-152.4c52.3-48.8 155.4-26.4 220.2-26.9c114.3-0.9 228.5 1 342.7 7.5c72.8 4.2 235.1-17 257.7 78.4c12.1 51.3-15.2 109.8-35.7 155.4c-3.1 6.9-6.6 14-12.8 18.2c-7.2 4.9-16.5 5.1-25.2 5c-161.8-1-323.5-2.2-485.3-1.1c-19.9 0.1-74.1 4.4-132.5 3.5c-95.8-1.5-203.1-16.9-189-87.6z" />
			<path id="Layer" class="s3" d="m-106.6 409.3c2.3-5.9 344.1-153.3 452.1-121.1c108 32.1 219 288.1 176.8 342.9c-42.3 54.8-488.6 270.7-574.4 174.6c-85.8-96-98.9-284-54.5-396.4z" />
			<path id="Layer" class="s2" d="m-103 613.5c37 2.1 73.8 0.1 110.8 3.6c38.6 3.6 77-3 115.4 3.8c33.9 6 70.3 1.1 104.4 0.2c42-1.1 84.4-1.2 126.4-0.5c6.5 0.2 6.5 11.9 0 12c-42 0.8-84.4-2.8-126.4-0.3c-34.1 2.1-66.9 14.1-101.4 8.9c-21.1-3.1-40.8-4.9-62-3.3c-20.5 1.6-41.4 1-61.9-0.3c-35.8-2.3-73.1 3.4-106.6-12.9c-4.6-2.2-4.6-11.4 1.3-11.2z" />
			<path id="Layer" class="s2" d="m-94.3 580.1c34.4-13.2 75.3-7.5 110.8-5.5c21.7 1.2 43.6-0.4 65.2-0.5c19.1-0.1 37.1 2 56 3.8c39.1 3.7 78.9 1.1 118.1 1.1c17.3 0 35.6-2.2 52.7 0.7c7.8 1.4 15.5 1.7 23.4 2.4c6 0.5 18.5 6.2 23.7 1.8c9.5-8 19.2 11.2 9.2 18.7c-11.4 8.5-29.7 0-41.7-2c-7.3-1.3-14.8-3.8-22.1-4.7c-9.5-1.1-20 0.5-29.6 0.5c-40.2 0-81.1 2.3-121.3-0.5c-20.4-1.5-40.4-5.5-60.9-5.7c-20.5-0.2-41 0.1-61.5-0.2c-20.5-0.2-40.9-2.3-61.4-2.4c-20-0.2-40.2-4.3-60-3.4c-2.1 0.1-2.3-3.4-0.6-4.1z" />
			<path id="Layer" class="s2" d="m-104.6 542.6c22.3-3.5 44.2-10.4 66.8-11.3c20.2-0.8 40.5 0.7 60.7-0.6c43.8-2.8 86.8-9.1 130.8-9.2c21-0.1 42.4-1.3 63.4 0.1c18.1 1.2 35.9 6.6 54 7.1c36.4 1 73.3 12.4 109.6 9.9c12.9-0.9 13 23.7 0 23.9c-19.1 0.2-38.3-4.6-57.4-6.5c-17.4-1.7-34.7-4.7-52.2-5.6c-18.2-0.9-35.9-6-54-7.4c-21-1.6-42.3-0.4-63.4-0.5c-44-0.2-87 5.8-130.8 8.3c-21.1 1.2-42.2-0.5-63.3 0.2c-21.6 0.7-42.6 6.1-64.2 3.8c-6.8-0.8-6.5-11.3 0-12.2z" />
			<path id="Layer" class="s2" d="m-89 497.7c42.2-2.4 84.3-7.8 126.6-9.8c38.8-1.8 77.7-1.6 116.5-2c38.9-0.4 77.4 1.4 116.3 1.4c19.8-0.1 39.7-0.1 59.5-0.1c19.1 0 38 2.8 57 3c11.1 0 11 21 0 20.3c-9.8-0.6-19.2-3.8-29-4.4c-9.3-0.5-18.7 0-28 0c-20.8-0.1-41.5-0.1-62.3-0.1c-38 0-75.6-2-113.5-2.3c-39.8-0.3-79.6-1.1-119.4 0.1c-20.1 0.6-40.3 1.8-60.4 2.1c-21.3 0.3-42.1-1.7-63.3-2.8c-3-0.2-3-5.3 0-5.4z" />
			<path id="Layer" class="s2" d="m-90.6 456c22.9-3 44.8-8.8 67.9-10.1c21.3-1.2 42.7-0.7 64.1-0.8c44.7-0.2 89.4-5.7 134.1-4.3c22 0.7 43.6 2.1 65.7 1.8c20.3-0.3 41.3 0.5 61.4-2.1c30-3.8 59.3 7 89 5.3c10.7-0.6 10.7 19.4 0 19.7c-14.7 0.4-29.8-2.9-44.4-5.1c-15.7-2.4-30.3-2.2-46-0.8c-41.8 3.6-83.7 1.3-125.6-0.2c-44.7-1.6-89.4 3.3-134.1 3.2c-22.3-0.1-44.6-0.5-66.9-0.6c-21.7-0.1-43.4 2.3-65.1 0.8c-3.8-0.2-3.6-6.3-0.1-6.8z" />
			<path id="Layer" class="s2" d="m-81.3 413.1c10.3-1.1 20.2-4.2 30.5-5.4c10.6-1.2 21.4-1 32-1.4c21.9-0.8 43.7-0.4 65.6-0.7c43.1-0.6 85.5-8.5 128.7-8c22.6 0.3 45.1-1.8 67.6-1.9c19.9-0.1 39.5 3.3 59.4 3.7c17.7 0.4 35.1 3.5 52.7 5.9c9.2 1.3 18.2-1.7 27.4 0.1c8.3 1.6 16 1.6 24.5 1.6c10.3 0 10.3 19.1 0 19.1c-8.1 0.1-16.6 0.9-24.6-0.7c-8.9-1.8-17 0.1-26-0.7c-18.7-1.6-37.2-5.7-56.1-5.9c-20-0.2-39.9-3.7-60-3.7c-21.6 0.1-43.2 2.4-64.8 1.9c-44-0.9-87.4 6.7-131.4 6.8c-41.3 0.1-84.4 2.2-125.4-3.7c-3.6-0.5-3.7-6.4-0.1-7z" />
			<path id="Layer" class="s3" d="m1625.1 849.2c44.1-33 98.1-52.1 153.5-53.4c40.4-1 82.4 7.6 118.4 24.2c39.2 18.1 70.5 45.1 90.5 78c19.8 32.7 32.7 68.1 37.1 102.3c5.1 39.5-1 75.2-18.1 106.1l-2.7-1.5c31.6-57 24.5-133.7-18.9-205.3c-38.4-63.3-119.3-102.8-206.1-100.6c-54.8 1.4-108.1 20.2-151.7 52.8c-12.1 9-23.4 19.2-33.8 30.2c-31.8 33.9-52.2 75.7-71.8 116.1c-15 30.9-30.5 62.8-51.2 91.2c-25.4 34.9-57.6 63.4-95.7 84.7c-37.3 20.7-78.3 33.5-122 38.1l-0.3-3.1c87.4-9 166-53.3 215.5-121.4c20.4-28.2 35.9-60 50.9-90.8c19.7-40.6 40.2-82.6 72.3-116.9c10.4-11.4 21.9-21.6 34.1-30.7z" />
			<g id="Layer" style="opacity: .8">
				<path id="Layer" class="s5" d="m1272.2 917.8c-1-3.4-1.9-7.1-1.3-10.6c0.6-3.5 3.1-7 6.6-7.7c5-1 9.3 3.8 11.7 8.3c4.5 8.3 7.1 17.4 9.7 26.5c2.9 10.2 18.9 51.1-1.9 30.7c-12.1-11.8-20-31.3-24.8-47.2z" />
				<path id="Layer" class="s5" d="m1293.4 868.4c-1.1-11.6-1.9-24.4 5.1-33.7c1.5-2 3.7-3.9 6.2-4c4.8-0.2 7.4 5.6 8.1 10.4c3.1 20.3 1.5 63.8-10.2 81c-6.9-16.3-7.5-36.1-9.2-53.7z" />
				<path id="Layer" class="s5" d="m1317.2 905.8c2.3-16 5.4-32.5 14.7-45.7c1.6-2.3 4.5-4.7 6.8-3.1c0.7 0.5 1.2 1.4 1.6 2.2c3.4 7.9 1.1 16.9-1.4 25.1c-7.2 23.9-13.8 52.3-26.4 73.8c-0.6-17.2 2.3-35.2 4.7-52.3z" />
				<path id="Layer" class="s5" d="m1327.9 1013.2c0.6-13.4 2-28.6 12.7-36.8c1.5-1.1 3.3-2.1 5.1-1.6c2.1 0.7 3 3.1 3.3 5.3c1.4 8.9-1.2 17.9-3.7 26.5c-6.5 22-12.9 44-19.5 66c-0.8-19.5 2.1-39.6 2.1-59.4z" />
				<path id="Layer" class="s5" d="m1294.3 1045.8c5-2.3 11.2 0.8 14.3 5.4c3 4.6 3.8 10.4 4.7 15.8c2.1 12.8 5.1 25.7 10.1 37.7c-2.7-5.1-37.7-54.9-29.1-58.9z" />
				<path id="Layer" class="s5" d="m1341.9 1162.8c1.4-15.1 3.1-30.9 11.4-43.5c2.3-3.5 6.7-7 10.4-5c2 1.1 2.9 3.5 3.4 5.7c3.7 15.6-2.2 31.6-7.4 46.7c-9.5 27.8-15.6 56.4-24 84.5c-4.6-10.8 0.6-28.8 1.7-40.4q2.3-24 4.5-48z" />
				<path id="Layer" class="s5" d="m1312.8 1235.5c-9.9-18.4-17.9-38-21.2-58.6c-0.8-4.7-1.2-9.7 0.7-14.1c1.9-4.4 7-7.6 11.5-5.9c3.4 1.3 5.3 4.9 6.7 8.2c11.9 28.8 13.4 63 20 93.3c-7.8 0.5-14.2-16.4-17.7-22.9z" />
				<path id="Layer" class="s5" d="m1395.1 953.6c-7.7-13.2-17.1-25.9-21.3-40.7c-2-7.2-2.7-14.7-3-22.2c-0.2-6.4-0.1-13.1 2.7-18.9c2.8-5.8 8.9-10.5 15.2-9.6c5.1 0.7 9.2 4.6 11.5 9.2c2.3 4.6 3 9.7 3.7 14.8c5 35.8 9.5 71.9 2.9 107.9c1.6-14.4-4.5-28.3-11.7-40.5z" />
				<path id="Layer" class="s5" d="m1423 995.6c5-19.4 10.4-39.5 23.3-54.8c2-2.4 4.8-4.9 7.9-4.5c3.7 0.4 5.8 4.6 6.2 8.3c1.1 8.9-2.9 17.5-6.8 25.5c-10.6 21.7-21.9 50.1-40.7 65.8c1.9-13.5 6.7-27.2 10.1-40.3z" />
				<path id="Layer" class="s5" d="m1383.1 1095.7c-7-14.6-11.2-30.5-12.4-46.7c-0.2-2.4-0.1-5.3 1.9-6.7c3.2-2.2 7.1 1.4 9.1 4.7c15.1 25.4 23.2 62.1 21.9 91c-4.7-15.1-13.7-28.1-20.5-42.3z" />
				<path id="Layer" class="s5" d="m1421.2 1184.8c6.4-25.4 13.6-52.2 32-70.9c2.4-2.5 6.5-4.8 9.1-2.5c0.9 0.8 1.4 2.1 1.7 3.3c2.4 9.1 0.3 19-3.7 27.5c-4 8.6-9.8 16.1-15.2 23.8c-11.8 16.7-20.4 34.8-30.4 52.4c-2.6-9.6 4.1-24 6.5-33.6z" />
				<path id="Layer" class="s5" d="m1390 1294.1c-10.6-17.3-16.6-37.5-17.1-57.8c-0.1-5 0.5-10.9 4.9-13.4c3.6-2 8.3-0.7 11.3 2.2c2.9 2.9 4.4 6.9 5.5 10.8c7.1 26.7-2.2 56.8 9 82.4c-3-8.8-8.8-16.2-13.6-24.2z" />
				<g id="Layer" style="opacity: .8">
					<path id="Layer" class="s5" d="m1409.7 985.9c1.9 16.9-0.5 34.9-0.6 51.9c-0.1 17.3 0 34.6 0.2 51.9c0.3 33.2 1 66.3 1.4 99.5c0.4 32.8 0.9 65.6 1.3 98.4c0.2 17-0.1 34.1-0.1 51.1c0 16.8 1.4 34.4-0.8 51.1c-0.3 2.2-3.9 3.3-4.3 0.6c-2.3-15.7-1.5-32.1-1.8-48c-0.3-17-1-34.1-1.2-51.1c-0.4-34-0.5-68-0.8-102c-0.3-34.4-0.6-68.8-0.2-103.2c0.2-17.3 0.7-34.6 1.4-51.9c0.6-15.8-0.1-33 3.6-48.4c0.2-1.2 1.8-0.7 1.9 0.1z" />
				</g>
				<g id="Layer" style="opacity: .8">
					<path id="Layer" class="s5" d="m1407 1060.6c-0.7-11.2 2.6-24.4 9.9-33.2c1.1-1.3 2.8 0.4 2.2 1.7c-2.3 5.5-5.2 10.5-7.1 16.2c-1.6 5-2.6 10.3-3.5 15.5c-0.1 0.8-1.3 0.6-1.5-0.2z" />
				</g>
				<g id="Layer" style="opacity: .8">
					<path id="Layer" class="s5" d="m1406.1 1237.6c-1.8-9.9 1.9-24.7 10.7-30.6c1.6-1 3.3 1 2.5 2.5c-2.3 4.4-5.6 8-7.3 12.9c-1.7 4.8-1.9 9.6-2 14.7c-0.1 2.1-3.4 2.7-3.9 0.5z" />
				</g>
				<g id="Layer" style="opacity: .8">
					<path id="Layer" class="s5" d="m1406.4 1336c-2.9-5.2-3.3-11.6-5-17.2c-1.9-6.4-5.1-12.4-6.8-18.9c-0.6-2.3 2.3-3.2 3.5-1.5c3.9 5.4 6.1 12.7 7.9 19.1c1.6 5.7 3.7 12.3 2.4 18.2c-0.2 0.9-1.6 1.1-2 0.3z" />
				</g>
				<g id="Layer" style="opacity: .8">
					<path id="Layer" class="s5" d="m1371.8 1362.8c0.2 0 0.2-0.3 0-0.3c-0.2 0-0.2 0.3 0 0.3z" />
				</g>
				<g id="Layer" style="opacity: .8">
					<path id="Layer" class="s5" d="m1370.4 1352.8q-1-3.3-2.4-6.6c-0.7-1.5-1.8-2.9-1.7-4.6c0.1-0.5 0.6-0.7 0.9-0.4c1.2 1.3 1.3 3.3 1.8 5c0.6 2.1 1.4 4.2 2.2 6.3c0.2 0.5-0.6 0.7-0.8 0.3z" />
				</g>
				<g id="Layer" style="opacity: .8">
					<path id="Layer" class="s5" d="m1368.2 1397.2c-0.6-7.5 1.4-15.1 1.6-22.6c0.2-7.4-0.7-14.9-2.2-22.1c-3.1-14.9-9.2-28.3-16.4-41.6c-11.6-21.7-25.3-50.2-19.5-75.5c0.3-1.4 2.4-1.3 2.7 0c4 15.4 4.4 31.1 9.9 46.3c5.1 14.2 12.6 27.4 18.6 41.2c4.9 11.4 8 23.2 9.4 35.5c1.3 12.3 3.5 27.8-1.8 39.4c-0.5 1.3-2.2 0.5-2.3-0.6z" />
				</g>
				<g id="Layer" style="opacity: .8">
					<path id="Layer" class="s5" d="m1306 931.3c-0.1 1.3 0.1 2.7-0.3 4c-0.3 1-1.7 1-2 0c-0.4-1.3-0.3-2.7-0.3-4c0-1.6 2.6-1.6 2.6 0z" />
				</g>
				<g id="Layer" style="opacity: .8">
					<path id="Layer" class="s5" d="m1307.4 913.9c-3.1 55 15.6 109.3 20.2 163.8c2.5 28.8 2.8 57.8 3.7 86.7c0.8 28 3.1 57.1 0.4 85.1c-0.1 0.1-0.3 0.2-0.3 0c-4.9-27.8-4.8-57.1-6.1-85.2c-1.4-28.9-2.2-57.8-3.6-86.7c-2.6-55.2-25.5-108.5-15.9-164c0.2-0.8 1.6-0.6 1.6 0.3z" />
				</g>
			</g>
			<path id="Layer" fill-rule="evenodd" class="s6" d="m-4.7 5c5.5 1.9 11.4 2.4 17.2 1.9c13.1-1.1 25.7-7.1 38.5-9.9c27.8-6 56.3-6.7 84.6-5.7c5.9 0.2 14.6-0.9 20.2 1.4c10.6 4.5-5.6 7-9.2 7.8c-14.3 3-28.8 5.6-43.3 7.6c-30.4 4.2-61.1 5.7-91.7 3.9c14.3 8.7 28.2 19.9 45.1 22.4c17.3 2.5 35.5 0.6 53 1.6c20 1.1 40 3.6 60 6c17.4 2 38.1 1.5 53.9 8.9c-22.6 10.7-50.3 4.8-74.4 2.9c-27.8-2.2-55.5-4.6-83.2-7.1c10 7.7 19.6 17.6 32.8 18.7c12.4 1 24.9-0.5 37.3 1c26.7 3.1 47.9 16.1 70.3 29.8c5.8 3.6 13.4 7 18.3 11.6c5.4 5.1 2 7.4-4.2 6.6c-5.3-0.7-11.1-4-16.1-5.8c-6.9-2.5-13.7-4.9-20.6-7.3c-26.6-9.3-53.6-17.5-80.5-26.1c9.5 8.3 18.7 17.8 28.8 25.4c11.1 8.4 25.7 10.9 38.8 14.7c27.1 8 53.8 17.3 78.1 32.1c6.2 3.8 12.1 7.8 17.9 12.2c2 1.5 11.6 8.3 5.1 10.4c-3.7 1.2-12.2-3.8-16.1-5.1c-6.4-2.2-12.8-4.2-19.2-6.3c-25.6-8.2-51.4-16.5-74.6-30.4c9 11.1 18 22.2 27.1 33.2c7.2 8.9 14.1 20.9 25.5 24.6c11.8 3.8 24.1 5.1 35.8 9.9c12.2 4.9 23.3 12.1 33.2 20.8c10.1 8.9 19.7 19.3 27.4 30.3c8.8 12.7-11.4 1.9-15.7-0.5q-18.6-10.5-37.2-21c-11.1-6.3-22.1-13.6-34-18.2c6.6 12.5 13.1 25.1 19.8 37.5c6.5 12 16.4 20.2 24.2 31.1c7.9 11 10.6 23 12.5 36.2c1.7 11.6 5.9 26.6 2.3 37.8c-7.4-8.6-11.7-19.5-16.7-29.6c-4.6-9.4-9.2-18.8-12.9-28.5c-3.7-9.5-6.4-19.3-7-29.4c-0.6-11.2-7.1-19.6-12.6-29.1c-1.9 11.4-2 23.2-2.2 34.8c-0.2 11 2 22-0.1 33c-8.1-7.3-11.6-20.1-14.5-30.6c-2.9-10.4-4.1-21.4-2.5-32.1c1-6.4 3.4-11.9 5.5-17.9c2-5.6 0.9-8.4-2.4-13.2c-9.2-13.5-19-26.6-28.5-39.9c5.8 14 10.9 28.4 13 43.5c1.8 13 5.5 32.3-0.1 44.2c-7.6-6.4-10.1-15.5-14-24.5c-3.5-8.2-6.6-16.5-9.1-25c-5.1-17.4-9.9-36.4-8.6-54.6c-1.5-2.4-1.7-5.8-3.3-8.3c-4-6.5-10.8-11.6-16.1-17.1c-12.1-12.5-24.7-24.2-37.5-35.9c8.2 21.3 25.2 38.2 35 59c8.8 18.6 17 39.4 17.1 60.1c-11.2-13.2-19.1-29-27.7-44c-8.8-15.3-17.7-30.7-25.6-46.5c-3.9-7.9-7.4-16.1-9.7-24.6c-2.1-8.3-2-14-8.8-19.9c-13.2-11.5-28-21.3-42.1-31.6c8.9 22.2 22.3 40.6 35.8 60c6.8 9.7 12.3 19.9 16.9 30.8c3.9 9.2 10.2 19.6 7.9 29.4c-12.4-7.2-20.9-26.1-28.6-38.1c-7.4-11.7-14.7-23.5-20.9-35.9c-6.3-12.7-10.1-25.7-14.6-39.1c-5-15-16-20.1-28.8-27.5c-3.1-1.8-18.3-12.5-19.2-8.1c-0.6 2.5 10.3 13.3 12.2 15.7c8.6 10.7 17.4 20.6 24.1 32.7c12 21.8 23.2 52.4 20.4 77.5c-11.6-3.4-17.9-22.4-22.9-32.1c-6.6-12.7-12.4-25.8-18.3-38.8c-5.9-12.9-11.4-26-15.6-39.6c-1.7-5.8-2.1-15.8-6.3-20.4c-4-4.4-13.1-6.6-18.4-8.9c5.6-1.4 14.1 3.2 20 5.2zm175 146q0 0 0 0q0 0.1 0.1 0.1q-0.1-0.1-0.1-0.2q0 0 0 0.1zm11.1 47.7c3.9 14 8.2 34.3 19 44.9c-0.9-15.4-1.2-30.7-5.6-45.7c-3.9-13.1-9.9-25.5-16.7-37.4c-2.1-3.7-5.6-6.1-7.7-9.4c5.6 15.2 6.6 32 11 47.6zm-102-89c8.1 13.1 16.7 25.8 25.5 38.4c-2.4-15.9-11.6-29.3-20.3-42.3c-5-7.4-10-14.7-15.1-22c-1.6-2.3-5.4-6.3-8.1-9.9c5.5 12.3 10.9 24.2 18 35.8zm-18-35.8q-0.9-2.2-1.9-4.4c-0.4-0.4-0.7-0.8-1.1-1.2c0.1 1.4 1.4 3.4 3 5.6zm210.8 219.8c-4.3-11.6-12.8-20.9-21.5-29.4c1.6 12.9 6.9 23.8 12 35.8c4.3 9.9 8.4 27.4 16.9 34.1c-2-13.3-2.6-27.8-7.4-40.5zm7.4 40.5q0 0.1 0 0.2q0.1-0.1 0.1-0.1q-0.1-0.1-0.1-0.1zm0 0.3q0-0.1 0-0.1c-0.3 0.2-1 0.4 0 0.1zm-212.5-293.8c22.6 4.1 45.5 5.8 68.4 7.8c21.4 1.9 43.8 6.1 64.9 1.4c-43.7-2.6-88.4-13.4-133.3-9.2zm-39.3-32.1q0.3-0.2 0.6-0.3q-1.1-0.3-2.1-0.6q0.8 0.3 1.5 0.9zm26.8-0.2c10.8-0.2 21.5-1.7 32.1-2.9c10.6-1.2 21.1-2.6 31.7-4c5.3-0.7 10.6-1.4 15.9-2c1-0.1 8.3-0.2 8.8-1.1c1.7-3.1-1.8-2.4-3.3-2.7c-9.4-1.9-20.8-0.5-30.4-0.4c-9.3 0.1-18.6 0.5-27.8 1.3c-17.8 1.5-37.2 3.5-53.2 11.7c7.8 1.7 18.6 0.3 26.2 0.1zm53.4 63.1q0.1 0 0.1 0q-0.9-0.4-1.8-0.5c0.6 0.2 1.1 0.3 1.7 0.5zm7.5 3.7c4.2 1.8 8.8 2.9 13.1 4.3c9.1 2.9 18.3 5.8 27.4 8.8q14.5 4.7 29.1 9.3c7.4 2.4 16.5 6.8 24 7.3c-2.5-0.3-6.4-4.2-8.6-5.8c-4.5-3.3-9.1-6.5-13.9-9.4c-7.8-4.6-15.9-8.7-24.4-11.9c-16.7-6.3-36.5-10.3-54.1-6.3c2.6 0.9 4.9 2.6 7.4 3.7zm93.6 29.7q0.2 0 0.3 0q-0.1 0-0.3 0zm27.9 41.7c-9.3-5.2-18.9-9.7-28.8-13.7c-19.2-7.8-39.2-13.3-59.2-18.7c30 25.2 70.4 34.2 106.9 45.9c-4.5-2.8-12.5-9.9-18.9-13.5zm-235.1-122.4c14.2 39.2 30.7 74.4 51.4 107.7c-4.1-41.1-18.8-77.2-51.4-107.7zm211.1 166.2c8 13.6 28.8 21 42 28.4c16.2 9.1 32.5 18.1 48.8 27.2c-22.2-30.4-53.2-50.5-90.8-55.6zm-58.5-6.7c-0.6-19.9-19.6-55.5-46.6-87.5c11.3 31 30.1 58 46.6 87.5zm72.4 101.6c-0.2-21.6 2.7-43.4-1.9-64.9c-12.6 22.3-7.5 43.7 1.9 64.9z" />
			<path id="Layer" class="s6" d="m-24.5-0.9c-2.8-1.1-5.7-2.2-8.5-3.3c-1.1 3.6 6.4 4.4 8.5 3.3z" />
			<path id="Layer" class="s0" d="m1207.5 1154.9c-3-1.9-2.5-9.6-1.3-21.9c0.5-5.2 1-10.1 0.7-12.5c-2.1-19.9-8.2-43.2-16-60.9c-4-9.2-7.4-18.8-10.6-28.2c-4.6-13-9.3-26.5-15.7-38.8c-6.2-11.7-14.2-22.3-23.8-31.5c-2.6-2.5-5.2-5.1-7.9-7.9c-6.2-6.3-12.6-12.9-19.2-17.5c-25.6-18-71.6-31-102.5-29l-7.7 0.5c-28.6 1.8-58.2 3.6-85.1 12.8c-19.8 6.7-45.1 17-66 36.7l-3 2.8c-12.2 11.6-24.9 23.7-38.1 34.2c-2.3 1.8-4.6 3.6-6.9 5.3c-7.8 5.9-15.8 12-22 19.7c-33 40.8-33.1 107.2-32.3 126.5l-3.1 0.1c-0.8-19.7-0.7-87 33-128.6c6.4-7.9 14.6-14.2 22.5-20.2c2.3-1.8 4.6-3.5 6.8-5.3c13.1-10.4 25.7-22.4 37.9-34l3-2.8c21.2-20.2 47-30.6 67.1-37.4c27.3-9.3 57.1-11.1 85.9-12.9l7.7-0.5c31.5-2 78.3 11.2 104.4 29.5c6.8 4.8 13.4 11.5 19.7 17.9c2.7 2.7 5.3 5.4 7.8 7.8c9.9 9.4 18.1 20.3 24.4 32.3c6.6 12.5 11.3 26.1 15.9 39.2c3.2 9.3 6.6 18.9 10.6 28c7.8 18 14 41.6 16.2 61.8c0.3 2.8-0.2 7.8-0.7 13.1c-0.6 6.2-1.7 17.8-0.1 19.1z" />
			<path id="Layer" class="s0" d="m1010 1132.9l-3.1-0.1c0.3-9.2-2.6-17.6-7.5-22.5c-3.7-3.6-8.5-5.3-14.2-5c-8 0.4-19.2 5.6-23.1 12.5c-2 3.6-2 7.3 0.1 11.1l-2.7 1.4c-2.5-4.7-2.6-9.6 0-14.1c4.5-8.1 16.8-13.6 25.6-14.1c6.6-0.4 12.1 1.6 16.5 5.8c5.6 5.8 8.7 14.8 8.4 25z" />
			<path id="Layer" class="s0" d="m1032.7 1131.1l-3-0.5c1.6-9.7-5.8-19.1-11.7-26.7c-0.8-1.1-1.6-2.1-2.4-3.1c-9.1-11.9-18.4-12.4-34.7-9.1c-9.4 1.9-34.3 13.2-40 26.1q-2.5 5.8 0.6 11.1l-2.6 1.6c-2.6-4.4-2.9-9.1-0.8-14c6-13.7 31-25.6 42.2-27.9c17.2-3.5 27.8-2.9 37.8 10.2c0.7 1 1.5 2 2.3 3c6.3 8.2 14.2 18.3 12.3 29.3z" />
			<path id="Layer" class="s0" d="m1051.4 1139.2l-3.1-0.2c0.9-13.5-2.7-29.5-9.3-41.7c-9.9-18.2-18.6-26.8-41.8-26c-23.1 0.7-77 8.3-77.3 63.7h-3.1c0.2-40.9 29.5-65.2 80.3-66.8c24.6-0.7 34.4 8.7 44.6 27.6c6.9 12.7 10.6 29.3 9.7 43.4z" />
			<path id="Layer" class="s0" d="m1075.3 1146.7c-5.5-24.5-16.8-47.8-30.4-62.3c-18-19.3-36-25.1-62-19.8c-3.4 0.7-7.1 1.3-10.9 2c-17.7 3.2-39.8 7.1-52.6 17.5c-16.1 13.2-25.6 34.5-25.4 57.1h-3.1c-0.3-23.5 9.6-45.8 26.5-59.5c13.5-11 35.9-15 54-18.2c3.8-0.7 7.5-1.3 10.9-2c27.3-5.5 46.1 0.5 64.9 20.8c13.9 15 25.6 38.8 31.1 63.8z" />
			<path id="Layer" class="s0" d="m1092 1147.1c-1.8-3.4-2.7-7.9-3.6-12.2c-0.8-4-1.6-8-3.1-11.3c-2.3-5-5.5-10.1-8.6-15c-1.8-2.9-3.7-5.9-5.4-8.9c-9.7-17-25.9-40.3-48-54.1c-14.2-8.9-36.5-9.1-59.8-0.6c-2.5 0.9-4.9 1.8-7.5 2.7c-21.3 7.6-43.4 15.4-55.4 34.8l-1.5 2.4c-11.4 18.2-24.3 38.8-23.7 60.4l-3.1 0.1c-0.6-22.5 12.6-43.6 24.2-62.1l1.5-2.4c12.6-20.3 35.2-28.3 57-36c2.5-0.9 5-1.8 7.4-2.7c24.2-8.8 47.5-8.5 62.5 0.8c22.7 14.2 39.2 37.9 49.1 55.2c1.6 2.9 3.5 5.9 5.3 8.8c3.1 5 6.4 10.1 8.8 15.3c1.7 3.6 2.5 7.8 3.3 12c0.9 4.3 1.7 8.4 3.3 11.4z" />
			<path id="Layer" class="s0" d="m1112.1 1156.9c-0.9-0.7-1.6-3-4.3-14.5c-0.9-3.9-1.8-7.5-2.4-9.4c-1.5-5-2.7-9.9-3.8-14.7c-2.4-10.4-4.6-20.2-10.6-29.7c-23.6-37.6-44.5-58.8-64-64.7c-19.2-5.9-50.3-2-71.1 4.9c-31.1 10.3-60.7 21.7-80.5 48c-6.8 9.1-10.2 20.1-13.1 30.6c-2.8 10.1-7.3 29.1-6.7 42l-3.1 0.2c-0.7-13.4 4-32.7 6.8-43c3-10.8 6.4-22.1 13.6-31.6c20.2-27 51.6-39.1 81.9-49.1c21.3-7 53.2-11 73-4.9c20.2 6.2 41.7 27.8 65.7 66c6.3 10 8.6 20 11 30.7c1.1 4.7 2.2 9.6 3.7 14.5c0.6 2 1.5 5.7 2.4 9.6c1.1 4.8 2.8 12 3.5 13z" />
			<path id="Layer" class="s0" d="m1126.1 1154c-2.9-10.2-5.2-21.3-7.7-32.9c-2.8-13.7-5.8-27.8-9.8-40.5c-14.3-45-38.9-73.6-73-84.9c-27.7-9.2-66.3 7.6-94.4 19.8c-2.4 1.1-4.8 2.1-7 3c-2.3 1-4.7 2-7.3 3.1c-23.9 10-56.7 23.8-67.4 46c-10.7 22.1-23.2 58.5-25.5 86.1l-3.1-0.3c2.3-28.1 15-64.9 25.7-87.2c11.2-23.3 44.6-37.3 69-47.5c2.5-1.1 5-2.1 7.3-3.1c2.3-1 4.6-2 7-3c28.6-12.4 67.8-29.5 96.6-19.9c35.2 11.7 60.4 40.9 75 86.9c4.1 12.9 7 27.1 9.9 40.8c2.4 11.6 4.7 22.6 7.6 32.7z" />
			<path id="Layer" class="s0" d="m1139.5 1161.1l-0.4-2.8c-4.4-29.7-8.5-57.8-19.2-86.9l-1.7-4.7c-5.4-14.8-10.5-28.8-20.9-41.1c-10.7-12.7-22.1-21.7-34.8-31.4l-0.6-0.4c-12.2-9.3-20.9-16-36.7-16.7c-18.2-0.9-36.1 3.6-53.4 7.9l-5.7 1.4c-37.2 9.1-88.2 21.7-118.2 56c-1.6 1.9-3.4 3.8-5.3 5.8c-5.8 6.2-11.7 12.6-15 19.5c-2.1 4.4-2.8 9.7-3.5 14.8c-0.5 3.6-1 7.4-2 10.8c-1.2 4.3-2.7 9-4.3 13.9c-5 15.5-10.6 33.2-9.9 47.4l-3.1 0.1c-0.7-14.8 5-32.7 10.1-48.5c1.6-4.9 3-9.5 4.3-13.8c0.9-3.3 1.4-6.7 1.9-10.4c0.7-5.3 1.5-10.9 3.8-15.7c3.4-7.3 9.6-13.9 15.5-20.3c1.8-1.9 3.6-3.8 5.2-5.7c30.6-35 82.1-47.7 119.7-56.9l5.7-1.4c17.5-4.4 35.6-8.9 54.3-8c16.7 0.8 25.8 7.8 38.4 17.4l0.6 0.4c12.8 9.8 24.3 18.9 35.3 31.8c10.8 12.7 15.9 26.9 21.4 42l1.7 4.7c10.8 29.4 15 57.7 19.3 87.5l0.4 2.8z" />
			<path id="Layer" class="s0" d="m1165.4 1163.4c-5.5-17.2-10.2-35.4-14.7-52.9c-6.1-23.6-12.4-48.1-20.9-71c-11.7-32-46.3-63.7-80.3-73.8c-45.8-13.6-82.9-12.9-124.1 2.4c-35.9 13.3-73.9 37.5-106.9 68.1c-31.7 29.4-35.3 72.3-36.3 117.4l-3.1-0.1c1-45.8 4.7-89.4 37.3-119.6c33.3-30.9 71.7-55.3 107.9-68.8c41.9-15.5 79.6-16.3 126-2.5c34.9 10.4 70.3 42.9 82.3 75.7c8.5 23.1 14.8 47.6 21 71.3c4.5 17.5 9.2 35.7 14.7 52.8z" />
			<path id="Layer" class="s0" d="m1183.1 1168.8c-3.2-6-3.4-13.9-3.6-21.5c-0.1-3.2-0.2-6.3-0.5-9.1c-1.3-12.2-4.5-24.5-7.6-36.3c-0.7-2.5-1.3-5-1.9-7.5c-0.9-3.3-1.7-6.7-2.5-10.1c-5.4-21.8-11-44.4-23.5-62.9c-4.3-6.4-6.9-13-9.4-19.5c-1.3-3.4-2.7-6.9-4.3-10.4c-4.9-10.5-15.8-22.6-21.8-28.8c-25-25.9-66.3-32.7-82.9-34.5c-12.1-1.3-24.3 0.3-36.1 1.9c-2.8 0.4-5.5 0.7-8.3 1.1c-5.9 0.7-11.8 1-17.6 1.2c-9.2 0.4-18.7 0.8-27.7 3c-26.3 6.5-47.1 21.9-62.4 34.6c-8.3 6.9-15.7 14.9-23 22.6c-9.7 10.3-19.7 21-31.8 29.3c-12.4 8.5-21.9 16.2-30.7 28.4c-7 9.6-8.8 20.5-10.8 32.1c-0.8 4.6-1.5 9.3-2.7 13.9c-1.8 7.1-2.4 15.6-3 23.7c-1 12.2-1.9 24.9-6.6 34.3l-2.7-1.4c4.4-8.9 5.4-21.2 6.3-33.2c0.6-8.3 1.3-16.8 3.1-24.2c1.1-4.5 1.9-9.2 2.6-13.7c1.9-11.4 3.8-23.1 11.3-33.4c9-12.4 19.1-20.6 31.5-29.1c11.8-8.1 21.7-18.7 31.3-28.9c7.3-7.8 14.8-15.8 23.2-22.8c15.5-12.9 36.7-28.5 63.6-35.2c9.3-2.3 19-2.7 28.3-3.1c5.7-0.2 11.6-0.5 17.4-1.2c2.7-0.3 5.5-0.7 8.2-1.1c11.9-1.6 24.3-3.2 36.8-1.9c16.9 1.8 59.1 8.8 84.8 35.4c6.2 6.4 17.3 18.7 22.4 29.7c1.7 3.5 3 7.1 4.4 10.5c2.6 6.6 5 12.8 9.1 18.9c12.8 19 18.5 41.8 23.9 63.9c0.8 3.4 1.7 6.7 2.5 10.1c0.6 2.5 1.3 5 1.9 7.4c3.1 12 6.4 24.4 7.7 36.8c0.3 3 0.4 6.2 0.5 9.3c0.2 7.2 0.4 14.7 3.2 20.1z" />
			<g id="Layer" style="opacity: .7">
				<path id="Layer" class="s3" d="m595.9 141.8c9.2 3.5 19.3 6.9 27.9 11c31.3 14.8 73 32.1 88.2 64.9c26.2 56.3 43.6 142 9.6 197.8c-39.8 65.3-168.6 98.1-236.3 61.3c-65.6-35.7-72.7-101.8-65.8-168.4c3.1-30.7 6.2-64.5 25-90.1c22.3-30.4 69.2-64 102.7-80.2c25.6-6.6 25.6-5.4 48.7 3.7z" />
			</g>
			<path id="Layer" class="s5" d="m1582.5 143.6c91.4 64.3-16.5 221.3-110.3 218.5c-47.7-1.4-132.8-24.3-139.5-83.4c-6.9-60.3 14-162.2 93.9-161.1c18.6-13.5 116.5-1.5 155.9 26z" />
			<path id="Layer" class="s6" d="m1180.9 519.3c78.4-46.4 158.9 86.4 125.4 155.2c-17 34.9-62.6 90.5-108.8 75.7c-47-15.1-115.8-64.7-88.2-123.8c-3.8-18.4 37.9-87.2 71.6-107.1z" />
			<path id="Layer" class="s7" d="m637.9 248.2l-0.1-0.1l-14.5-17.6c-1.1-1.3-0.9-3.3 0.4-4.4c1.3-1.1 3.3-0.9 4.4 0.4l14.5 17.6c1.1 1.3 0.9 3.3-0.4 4.4c-1.3 1.1-3.2 1-4.3-0.3z" />
			<path id="Layer" class="s7" d="m648.2 232.4c-1.1-1.3-1.1-3.2 0.2-4.4c1.3-1.2 3.2-1.1 4.4 0.1l17.3 18.3c1.2 1.3 1.1 3.2-0.1 4.4c-1.3 1.2-3.2 1.1-4.4-0.1l-17.4-18.3c0.1 0.1 0 0.1 0 0z" />
			<path id="Layer" class="s7" d="m619.2 260.8c-1.1-1.2-1.1-3 0-4.2c1.2-1.3 3.2-1.3 4.4-0.2l17.9 16.7c1.3 1.2 1.3 3.2 0.2 4.4c-1.2 1.3-3.2 1.3-4.4 0.2l-17.9-16.7c-0.1-0.1-0.1-0.1-0.2-0.2z" />
			<path id="Layer" class="s7" d="m591.2 271.6c-1.2-1.3-1.1-3.3 0.2-4.4c1.3-1.2 3.2-1.1 4.4 0.1l0.1 0.1l12.7 13.8c1.2 1.3 1.1 3.2-0.2 4.4c-1.3 1.2-3.3 1.1-4.4-0.2z" />
			<path id="Layer" class="s7" d="m568.5 282.6c-1.2-1.3-1.1-3.2 0.2-4.4c1.3-1.2 3.3-1.1 4.4 0.2l7.5 8c1.2 1.3 1.1 3.2-0.2 4.4c-1.3 1.2-3.3 1.1-4.4-0.2z" />
			<path id="Layer" class="s7" d="m530.3 285.3c-1.1-1.2-1.1-3.2 0.1-4.3c1.2-1.2 3.2-1.2 4.4 0l26 26.3c1.2 1.2 1.2 3.2 0 4.4c-1.2 1.2-3.2 1.2-4.4 0l-26.1-26.4q0.1 0.2 0 0z" />
			<path id="Layer" class="s7" d="m530.4 322.4c-1.1-1.2-1.1-3.1 0.1-4.3c1.2-1.2 3.2-1.3 4.4-0.1l17.5 17c1.2 1.2 1.3 3.2 0.1 4.4c-1.2 1.2-3.2 1.3-4.4 0.1l-17.5-17c-0.1 0-0.2-0.1-0.2-0.1z" />
			<path id="Layer" class="s7" d="m498.5 322.7c-1.1-1.2-1.1-3.1 0.1-4.3c1.2-1.2 3.2-1.2 4.4 0l22.8 22.8c1.2 1.2 1.2 3.2 0 4.4c-1.2 1.2-3.2 1.2-4.4 0l-22.8-22.8z" />
			<path id="Layer" class="s7" d="m670 287.9c-0.1-0.1-0.2-0.2-0.2-0.3l-11.9-16.7c-1-1.4-0.7-3.4 0.7-4.4c1.4-1 3.4-0.7 4.4 0.7l11.9 16.7c1 1.4 0.7 3.4-0.7 4.4c-1.3 1-3.1 0.8-4.2-0.4z" />
			<path id="Layer" class="s7" d="m685.1 281.6c-1.1-1.2-1.1-3.1 0.1-4.3c1.2-1.2 3.2-1.2 4.4 0l9.5 9.4c1.2 1.2 1.2 3.2 0 4.4c-1.2 1.2-3.2 1.2-4.4 0l-9.5-9.4c0 0 0 0-0.1-0.1z" />
			<path id="Layer" class="s7" d="m677.6 320.3c-0.1-0.1-0.2-0.2-0.2-0.3l-17.1-23.7c-1-1.4-0.7-3.4 0.7-4.4c1.4-1 3.4-0.7 4.4 0.7l17.1 23.7c1 1.4 0.7 3.4-0.7 4.4c-1.3 1-3.1 0.8-4.2-0.4z" />
			<path id="Layer" class="s7" d="m652.6 320.8l-0.1-0.1l-13.1-15.7c-1.1-1.3-0.9-3.3 0.4-4.4c1.3-1.1 3.4-0.8 4.4 0.4l13.1 15.7c1.1 1.3 0.9 3.3-0.4 4.4c-1.3 1-3.2 0.9-4.3-0.3z" />
			<path id="Layer" class="s7" d="m616.8 315c-1.1-1.2-1.1-3.1 0.1-4.3c1.2-1.2 3.2-1.2 4.4 0l11.1 11.1c1.3 1.2 1.2 3.2 0 4.4c-1.2 1.2-3.2 1.2-4.4 0l-11.1-11.1c0 0-0.1 0-0.1-0.1z" />
			<path id="Layer" class="s7" d="m602.7 329.9l-0.1-0.1l-7.9-9.8c-1.1-1.4-0.9-3.3 0.5-4.4c1.4-1.1 3.3-0.9 4.4 0.5l7.9 9.8c1.1 1.4 0.9 3.3-0.5 4.4c-1.3 1-3.2 0.9-4.3-0.4z" />
			<path id="Layer" class="s7" d="m579.5 338.3c-1.1-1.2-1.1-3.1 0-4.3c1.2-1.3 3.2-1.3 4.4-0.1l17.7 16.8c1.3 1.2 1.3 3.2 0.1 4.4c-1.2 1.3-3.2 1.3-4.4 0.1l-17.7-16.8c0 0-0.1 0-0.1-0.1z" />
			<path id="Layer" class="s7" d="m572.2 360.8l-8.4-9.3c-1.2-1.3-1.1-3.3 0.2-4.4c1.3-1.2 3.3-1.1 4.4 0.2l8.4 9.3c1.2 1.3 1.1 3.3-0.2 4.4c-1.2 1.2-3.2 1.1-4.4-0.2z" />
			<path id="Layer" class="s7" d="m558.3 381.9c0-0.1-0.1-0.1-0.1-0.2l-18.2-22.7c-1.1-1.4-0.9-3.3 0.5-4.4c1.4-1.1 3.3-0.8 4.4 0.5l18.1 22.8c1.1 1.4 0.9 3.3-0.5 4.4c-1.2 1-3.1 0.8-4.2-0.4z" />
			<path id="Layer" class="s7" d="m619.4 351.9c-1.1-1.2-1.1-3 0-4.2c1.2-1.3 3.1-1.4 4.4-0.2l18.2 16.3c1.3 1.2 1.4 3.1 0.3 4.4c-1.2 1.3-3.1 1.4-4.4 0.3l-18.2-16.3q-0.3-0.2-0.3-0.3z" />
			<path id="Layer" class="s7" d="m640.9 344c-1.1-1.2-1.1-3 0-4.2c1.1-1.3 3.1-1.4 4.4-0.3l16 14.1c1.3 1.1 1.4 3.1 0.3 4.4c-1.1 1.3-3.1 1.4-4.4 0.3l-16-14.1c-0.1 0-0.2-0.1-0.3-0.2z" />
			<path id="Layer" class="s7" d="m715.7 343c-0.1-0.1-0.1-0.1-0.2-0.2l-21.8-27.9c-1.1-1.4-0.8-3.3 0.5-4.4c1.4-1.1 3.4-0.9 4.4 0.5l21.8 27.9c1.1 1.4 0.8 3.3-0.5 4.4c-1.2 1.1-3.1 0.9-4.2-0.3z" />
			<path id="Layer" class="s7" d="m685.7 336.3c-1.1-1.2-1.1-3.1 0.1-4.3c1.2-1.2 3.2-1.2 4.4 0l10.6 10.5c1.2 1.2 1.2 3.2 0 4.4c-1.2 1.2-3.2 1.2-4.4 0l-10.6-10.5c0-0.1 0-0.1-0.1-0.1z" />
			<path id="Layer" class="s7" d="m681.4 360.3c-1.1-1.2-1.1-3.2 0.1-4.4c1.2-1.2 3.2-1.2 4.4 0.1l13.1 13.6c1.2 1.2 1.2 3.2-0.1 4.4c-1.2 1.2-3.2 1.2-4.4-0.1l-13.1-13.6c0.1 0.1 0 0 0 0z" />
			<path id="Layer" class="s7" d="m677.5 407.4l-19.5-21.6c-1.2-1.3-1.1-3.3 0.2-4.4c1.3-1.2 3.3-1.1 4.4 0.2l19.5 21.6c1.2 1.3 1.1 3.3-0.2 4.4c-1.3 1.2-3.3 1.1-4.4-0.2z" />
			<path id="Layer" class="s7" d="m606.6 376.2c-1.1-1.3-1.1-3.2 0.2-4.4c1.3-1.2 3.2-1.1 4.4 0.1l22.7 23.9c1.2 1.2 1.1 3.2-0.1 4.4c-1.3 1.2-3.2 1.1-4.4-0.1l-22.8-23.9c0 0.1 0 0 0 0z" />
			<path id="Layer" class="s7" d="m579.3 396.8c-1.1-1.2-1.1-3.1 0.1-4.3c1.2-1.2 3.2-1.2 4.4 0l12.2 12.3c1.2 1.2 1.2 3.2 0 4.4c-1.2 1.2-3.2 1.2-4.4 0l-12.2-12.3c0-0.1 0-0.1-0.1-0.1z" />
			<path id="Layer" class="s7" d="m570.9 429.9q0-0.2 0 0l-20.2-23.1c-1.1-1.3-1-3.3 0.3-4.4c1.3-1.1 3.2-0.9 4.4 0.3l20.1 23.1c1.1 1.3 1 3.3-0.3 4.4c-1.2 1-3.2 0.9-4.3-0.3z" />
			<path id="Layer" class="s7" d="m629.4 419.1c-1-1.1-1.1-2.9-0.1-4.1c1.1-1.3 3.1-1.5 4.4-0.4l16.6 13.6c1.3 1.1 1.5 3.1 0.4 4.4c-1.1 1.3-3.1 1.5-4.4 0.4l-16.6-13.6c0-0.1-0.2-0.2-0.3-0.3z" />
			<path id="Layer" class="s7" d="m607 424.6c-1.1-1.2-1.1-3.1 0.1-4.3c1.2-1.2 3.2-1.2 4.4 0l10 10c1.2 1.1 1.2 3.2 0 4.4c-1.2 1.2-3.2 1.2-4.4 0l-10-10c0 0 0-0.1-0.1-0.1z" />
			<path id="Layer" class="s7" d="m678.3 432.1l-17.4-19.2c-1.2-1.3-1.1-3.3 0.2-4.4c1.3-1.1 3.3-1.1 4.4 0.2l17.4 19.2c1.2 1.3 1.1 3.3-0.2 4.4c-1.3 1.2-3.3 1.1-4.4-0.2z" />
			<path id="Layer" class="s7" d="m696.5 398.6c-1.1-1.3-1.1-3.2 0.1-4.4c1.2-1.2 3.2-1.2 4.4 0.1l13.6 14.1c1.1 1.3 1.2 3.2-0.1 4.4c-1.2 1.2-3.2 1.2-4.4-0.1l-13.6-14.1c0 0.1 0 0 0 0z" />
			<path id="Layer" class="s7" d="m719.8 367.9c-1.1-1.2-1.1-3.2 0.1-4.3c1.2-1.2 3.2-1.2 4.4 0l16.5 16.8c1.3 1.3 1.2 3.2 0 4.4c-1.2 1.2-3.2 1.2-4.4 0l-16.6-16.9q0.1 0 0 0z" />
			<path id="Layer" class="s7" d="m737.9 351.5c-1.1-1.2-1.1-3.2 0.1-4.4c1.2-1.2 3.2-1.2 4.4 0.1l14.8 15.2c1.3 1.2 1.2 3.2-0.1 4.4c-1.2 1.2-3.2 1.2-4.4-0.1l-14.8-15.2c0 0.1 0 0 0 0z" />
			<path id="Layer" class="s7" d="m730.9 410.9c-1.1-1.2-1.1-3 0-4.2c1.2-1.3 3.2-1.4 4.4-0.2l11.7 10.6c1.3 1.2 1.4 3.2 0.2 4.4c-1.2 1.3-3.2 1.4-4.4 0.2l-11.7-10.6c-0.1 0-0.2-0.1-0.2-0.2z" />
			<path id="Layer" class="s7" d="m715.6 441.7l-12.1-13.4c-1.2-1.3-1.1-3.3 0.2-4.4c1.3-1.2 3.3-1.1 4.4 0.2l12.1 13.4c1.2 1.3 1.1 3.3-0.2 4.4c-1.3 1.2-3.2 1.1-4.4-0.2z" />
			<path id="Layer" class="s7" d="m674.6 454.6c-1.2-1.3-1.1-3.3 0.2-4.4c1.3-1.2 3.2-1.1 4.4 0.2l15.4 16.8c1.2 1.3 1.1 3.3-0.2 4.4c-1.3 1.2-3.3 1.1-4.4-0.2z" />
			<path id="Layer" class="s7" d="m650.8 459.1c-1.1-1.2-1.1-3.1 0.1-4.3c1.2-1.2 3.2-1.2 4.4 0l12.3 12.2c1.3 1.1 1.2 3.2 0 4.4c-1.2 1.2-3.2 1.2-4.4 0l-12.3-12.2c0 0-0.1 0-0.1-0.1z" />
			<path id="Layer" class="s7" d="m646 478.4l-0.1-0.1l-16.4-20.2c-1.1-1.3-0.9-3.3 0.5-4.4c1.3-1.1 3.3-1 4.4 0.5l16.4 20.2c1.1 1.3 0.9 3.3-0.5 4.4c-1.3 0.9-3.2 0.8-4.3-0.4z" />
			<path id="Layer" class="s7" d="m749.2 401.6c-1-1.1-1.1-2.8-0.2-4c1.1-1.4 3-1.6 4.4-0.6l10.1 7.8c1.4 1.1 1.6 3 0.6 4.4c-1.1 1.4-3 1.6-4.4 0.6l-10.1-7.8c-0.1-0.1-0.3-0.2-0.4-0.4z" />
			<path id="Layer" class="s6" d="m1202.2 259.5c1-1.8 2.2-3.4 3.4-5.1c1.4-1.7 2.6-3.9 4.4-5.2c5.3-3.9 11.8 1.5 8.7 7.3c-1 2-2.9 3.5-4.5 5.1c-1.4 1.5-2.9 2.8-4.5 4.1c-4.3 3.4-10.1-1.3-7.5-6.2z" />
			<path id="Layer" class="s6" d="m1256.2 252.5c-1.1-1.5-1.1-3.6-0.1-5.2c1.3-2.1 3.9-4.4 6.2-5.5c2.7-1.2 5.7-0.5 7.3 1.9c1.6 2.3 1.4 5.7-0.8 7.5c-2 1.6-5 3.2-7.6 3.4c-1.9 0.2-3.7-0.3-5-2.1z" />
			<path id="Layer" class="s6" d="m1244.8 221.5c1.5-2.7 3.2-6.3 5.6-8.3c2.1-1.8 5-1.9 7.1-0.1c2.2 1.8 2.3 4.6 1.1 7c-0.8 1.6-2.3 2.8-3.5 4.1c-1 1.1-2.1 2.2-3.3 3.2c-4 3.6-9.4-1.5-7-5.9z" />
			<path id="Layer" class="s6" d="m1170.4 227.1c0.7-1.9 1.7-3.6 2.7-5.3c1.8-3.1 6.5-3.3 8.8-0.7c2.4 2.6 1.7 7.2-1.6 8.7c-1.9 0.8-3.6 1.6-5.6 2.1c-2.7 0.6-5.3-2.2-4.3-4.8z" />
			<path id="Layer" class="s6" d="m1138.8 282.7c1.1-0.8-0.4 0.5 0.7-0.5c0.3-0.4 0.6-0.7 1-1c1-0.8 2-1.1 3.2-1.5c2.3-0.7 4.2-1.1 6.6-0.5c4.3 1.1 5 7.9 0.8 9.7c-2.3 1-4.2 0.9-6.6 0.5c-1.4-0.2-2.4-0.4-3.6-1.1c-0.7-0.4-1.2-0.8-1.7-1.1c-1.6-0.8-1.9-3.6-0.4-4.5z" />
			<path id="Layer" class="s6" d="m1184 332.9c0.4-2.4 2.5-4.1 5-4c3.2 0.2 6.9-0.2 9.7 1.6c4 2.5 2.9 9.3-1.9 10.1c-3.3 0.6-6.5-1-9.6-2.1c-2.3-0.8-3.7-3.1-3.2-5.6z" />
			<path id="Layer" class="s6" d="m1214.1 301.5c-2.1-1.2-2.8-3.8-2.2-6c1.8-6.4 11.2-7 14-1.1c1.3 2.7 0.5 5.8-1.9 7.4c-2.3 1.5-5.7 1.3-7.6-0.9c1.3 1.5 0.8 0.4 0.4 0.3c-0.2-0.2-0.1-0.1 0.3 0.1c0.2 0.2 0.5 0.3 0.8 0.3c0.5 0.1 0.5 0.1 0.1 0.1c0.2-0.1 0.5-0.1 0.8-0.1c0.1 0 2.3-1.5 1.6-0.7c-1.6 1.7-4.5 1.6-6.3 0.6z" />
			<path id="Layer" class="s6" d="m1138.2 337.1c1.2-1.8 2.5-3.5 4.1-5c2.2-2 5.5-1.7 7.6 0.4c2 2 1.7 5.7-0.4 7.6c-1.6 1.5-3.5 2.5-5.4 3.6c-3.9 2.3-8.7-3-5.9-6.6z" />
			<path id="Layer" class="s6" d="m1095.6 302.9c5.5-5-2.2-13.5-7.7-8.6c-5.6 5 2.1 13.6 7.7 8.6z" />
			<path id="Layer" class="s6" d="m1124.5 243.6c6.5-5.8-2.6-15.9-9.1-10.1c-6.5 5.9 2.6 16 9.1 10.1z" />
			<path id="Layer" class="s6" d="m1230.4 169.5c2.7-2.7 5.6-4.5 9.3-5.3c3.3-0.7 6.2 3.3 4.2 6.1c-2.2 3.1-4.9 5.2-8.4 6.7c-4.8 2-8.9-3.9-5.1-7.5z" />
			<path id="Layer" class="s6" d="m1310.5 211.1c-0.5-1.9 0.7-4.1 2.4-5c1.3-0.6 2.6-1.3 4-1.5c2.2-0.4 3.7 0 5.6 1c2.7 1.4 2.5 5.4 0.6 7.2c-2.4 2.3-5.3 2.4-8.4 1.9c-2.1-0.3-3.7-1.4-4.2-3.6z" />
			<path id="Layer" class="s6" d="m1316 260.8c0-2.9 2.1-5.3 4.6-6.6c2.8-1.4 7.2-1.6 9.2 1.3c1 1.4 1.5 2.7 1.2 4.4c-0.2 1.5-1.2 3.2-2.7 3.7c-1 0.3-1.8 0.6-2.9 0.6c-0.7-0.1 0.2-0.1 0.4-0.1c-0.6 0-1.3 0-1.9 0c-0.3 0-0.6-0.2-0.1 0q0.6-0.1 0 0c0.2 0 0.4-0.1 0.6-0.2c0.1 0.2-1.2 0.3-0.3 0.1c0.4-0.3 0.3-0.2-0.3 0.2c-0.2 0.1-0.5 0.3-0.7 0.4q-0.3 0.1-0.6 0.3c-3 1.9-6.4-1.1-6.5-4.1z" />
			<path id="Layer" class="s6" d="m1251.7 305.6c-2.4-2.6-1.6-7 1.6-8.6c1.2-0.6 2.4-1.1 3.8-0.9c2.8 0.3 4.6 2.3 4.7 5.1c0 1.4-0.6 2.6-1.3 3.7c-1.9 3-6.4 3.4-8.8 0.7z" />
			<path id="Layer" class="s6" d="m1395.9 205.3c-0.8-2-0.1-3.9 1.3-5.4c1.3-1.4 3.6-2.7 5.4-3.7c2.3-1.2 4.9-2.2 7.5-1.1c2.6 1.1 4.1 3.6 3.3 6.4c-0.9 2.9-3.3 4.4-5.9 5.5c-2.3 1-4.8 1.8-7.3 1.9c-2 0.1-3.9-1.7-4.3-3.6z" />
			<path id="Layer" class="s6" d="m1301.4 182.2c-1.8-5.6 6.3-8.9 9.8-5c4.1 4.5-0.7 10.2-5.9 9.2c-0.1 0-0.3-0.1-0.4-0.2c-1.6-0.2-3.3-2.1-3.5-3.6c0-0.1 0-0.3 0-0.4c-0.4-5.3 5.7-9.5 9.8-5c3.5 3.9-0.6 11.6-5.9 9.2c-0.1-0.1-0.3-0.1-0.4-0.2c-2-0.9-2.8-2.1-3.5-4z" />
			<path id="Layer" class="s6" d="m1027.4 365.4c-3.1 2.9-7.5 5.2-11.8 4.1c-3.5-0.9-5.1-5.5-3.1-8.4c2.5-3.6 7.5-4.7 11.7-4.5c4.5 0.2 6.4 5.9 3.2 8.8z" />
			<path id="Layer" class="s6" d="m1095.6 356.9c-1.7 2.9-3.5 6.2-6.2 8.2c-2.3 1.6-5.2 1.8-7.2-0.4c-1.9-2.2-1.4-5.2 0.4-7.2c2.3-2.5 5.8-3.9 8.8-5.3c2.9-1.4 5.9 1.9 4.2 4.7z" />
			<path id="Layer" class="s6" d="m1038.9 294.8c-2.5 1-5.3 1-7.9 0.9c-2.8-0.1-5.2-2.7-5-5.5c0-1 0.3-1.7 0.8-2.6c1.4-2.5 4.8-3 7.2-1.6c2.3 1.3 4.6 2.9 6 5.1c0.8 1.2 0 3.1-1.1 3.7z" />
			<path id="Layer" class="s6" d="m1078.8 247.2c-0.9 0.4-1.6 1-2.5 1.4c-1.1 0.6-2.5 1-3.7 1.3c-3.6 0.9-7.1-2.4-6.9-5.9c0.1-3.5 3.9-6.6 7.4-5.2c1.1 0.4 2.5 1 3.5 1.7c0.8 0.6 1.4 1.2 2.3 1.7c1.8 1 1.7 4.3-0.1 5z" />
			<path id="Layer" class="s6" d="m1151.5 195.8c-2 0.9-3.7 2-5.1 3c-1.5 1.1-3.4 1.7-5.3 1.5c-1.9-0.2-3.1-1.2-4.5-2.4c-1.5-1.4-1.6-4.2-0.5-5.8c2.1-3.1 5.7-4.3 9.2-2.9c1.7 0.6 3.7 1.4 5.9 1.8c2.3 0.5 2.4 4 0.3 4.8z" />
			<path id="Layer" class="s6" d="m1105.2 205c-1.2 2.6-4.2 3.9-7 3.1c-0.9-0.3-1.7-0.7-2.5-1.3c-2.2-1.6-3.1-4-2.4-6.5c0.6-2.3 3.3-4.1 5.7-3.9c1.5 0.2 2.7 0.5 4.1 1.2c2.6 1.3 3.2 5.1 2.1 7.4z" />
			<path id="Layer" class="s6" d="m1344.9 215c0.3-0.1 0.5-0.2 0.8-0.3c4.5-1.6 8.2 2.4 6.1 6.8c-0.2 0.3-0.3 0.5-0.4 0.8c-3.8 8-14.9-4.4-6.5-7.3z" />
			<path id="Layer" class="s6" d="m1295.9 283c1.5-1.8 3.7-1.9 5.6-0.9c1 0.5 2.1 0.9 3.1 1.5c1.7 1.1 2.7 2.5 3.3 4.3c0.4 1.3-0.2 2.7-1 3.7c-0.9 1.2-2.1 1.5-3.5 1.6c-3.1 0.1-5.4-2.7-7.4-4.6c-1.5-1.5-1.3-4.2-0.1-5.6z" />
			<path id="Layer" class="s7" d="m272.1 864c1.6 1.8 2.7 3.7 3.2 6.1c0.3 1.4 0.4 3 0.6 4.3c-0.6-5.5 0.1 0 0.2 0.6c0.9 6.3-2 13.2-6.7 17.6c0.8-1.1 1.7-2.2 2.5-3.3c-2 2.6-3.4 4.6-6.4 6.3c-7.5 4.1-17.1 1.8-21.5-5.6c-4.1-7-2.4-15.3 2.9-21c3.8-4.1 8.8-4.9 14-5.5c-1.3 0.1-2.7 0.3-4 0.5c0.4-0.1 0.7-0.1 1-0.2c-4.7 3.2-6.1 4-4.4 2.4c1.4-1.6 3.2-2.6 5.1-3.4c1.9-0.8 3.5-1.2 5.6-1.2c2.3 0.1-2.2 0.6-2.7 0.9c3.1-1.9 8.2-1.5 10.6 1.5z" />
			<path id="Layer" class="s7" d="m305 891.7c2 5.3 1.4 11.2 0.5 16.7c-1.1 7.2-4.9 13-11.8 15.6c-7.1 2.7-14.2-4.2-14.3-10.9c-0.1-5.7 3.3-10.3 6.9-14.4c2-2.2 3.7-3.9 4.4-7c1.8-7.7 12-6.3 14.3 0z" />
			<path id="Layer" class="s7" d="m267.4 943.9c-0.3 3.8-1 7.5-1.8 11.2c-1.6 7.9-9.3 14-17.4 10.6c-8.9-3.8-8.9-15.3-2.4-21.3c2.4-2.2 5-4.1 7.3-6.5c4.8-5 14.8-1.4 14.3 6z" />
			<path id="Layer" class="s7" d="m263.7 973.7c2.3 10-3.8 26.6-16.6 23.5c-4.5-1.1-6.6-5.1-7.1-9.3c-0.5-4.3 3.2-8.5 6.1-11.1q0.8-0.7 1.5-1.5c0.2-0.2 1.3-1.8 0.6-0.7c-0.7 1.1 0.3-0.5 0.4-0.7c1.1-1.5-0.4 1.4 0.1-0.2c2.1-7.1 13.2-7.7 15 0z" />
			<path id="Layer" class="s7" d="m294.9 1002.4c1.6 3 2.1 6.3 2.1 9.7c0 3 0 6.9-1.1 9.5c-1.5 3.6-3.3 6.2-7 7.8q-4.6 1.9-9.3 0c-6.6-2.7-9.5-10.9-5.8-17.1c1.5-2.5 3.6-4.2 5.5-6.2c0.4-0.4 0.7-0.8 1.1-1.2c1.1-1.2-0.5 1-0.1 0.1c0.1-0.3 0.4-0.8 0.6-1c0.6-0.7-0.5 1.6-0.2 0.3c1.6-6.3 11.1-7.7 14.2-1.9z" />
			<path id="Layer" class="s7" d="m342.3 977.9c2.1 3.8 2.7 8.5 2.8 12.8c0.2 8.2-3.1 16.9-11.9 19.2c-6.3 1.7-12.5-1.1-16-6.5c-3.6-5.6-1.7-12.5 2.2-17.2c1-1.2 2.4-2.1 3.8-2.9c1.4-0.8 0.5-1.2-1.3 1.1c0.3-0.4 0.7-0.7 1.1-1.1c0.3-0.3 2-2.3 0.5-0.5c-1.5 1.8 0.1-0.3 0.4-0.7c0.3-0.5 0.5-0.9 0.8-1.4c0.1-0.3 0.3-0.9 0.6-1.2c-1.3 1.2-0.7 2.2-0.4 0.7c1.6-8.1 13.6-9 17.4-2.3z" />
			<path id="Layer" class="s7" d="m296.6 954.8c4.2-0.2 8.5 3.2 9.5 7.3c0.9 3.8 0.5 7 0 10.8c-0.2 1.5 0.2-2.9 0.1-0.9c0 0.6 0 1.2-0.1 1.8c-0.4 3.8-1.6 6.6-4.1 9.5c-4.8 5.7-14.8 3.7-18.2-2.4c-2.8-5-2.4-10.8 0.9-15.5c0.6-0.8 1.2-1.6 1.8-2.5c0.3-0.4 0.5-0.9 0.8-1.3c0.6-0.9-0.9 2.4-0.3 0.4c1.2-4.3 5.2-7.1 9.6-7.2z" />
			<path id="Layer" class="s7" d="m342.4 918.7c1.7 5.4 5 10.6 4.6 16.4c-0.5 9.2-10.2 15.7-18.7 10.7c-7.7-4.5-8.5-17.2 0-21.5c1-0.6 0.7-0.4-0.8 0.7c0.3-0.3 0.7-0.6 1-1c0.5-0.5 0.9-1 1.3-1.5c0.5-0.5 0.5-0.6 0.2-0.1c0.2-0.3 0.3-0.5 0.5-0.8c0.4-0.9 0.6-2 0.9-3c1.6-5.5 9.2-5.3 11 0.1z" />
			<path id="Layer" class="s7" d="m360.3 843.7c2.4 2.4 2.9 6.4 1.2 9.4c-0.9 1.6 0.1-0.9-0.4 0.7c-0.2 0.7-0.4 1.5-0.6 2.2c-0.3 1.2-0.6 2.4-1 3.6c-0.6 1.8-1.2 3.8-2.1 5.6c-1.9 2.6-2.4 3.1-1.3 1.7c1-1.5 0.6-0.9-1.3 1.6c-1.6 1.6-3.3 2.2-5.3 3c-4.5 1.8-9.8-1.4-12.2-5c-2.4-3.6-2.3-9.4 0.1-13.1c1.5-2.5 3.8-4.1 6.2-5.8c0.3-0.2 0.7-0.5 1-0.7c-0.3 0.3-0.7 0.5-1 0.8c0.6-0.1 1.6-1.3 2.1-1.7c1.7-1.3 3.3-2.6 5.3-3.5c3.2-1.4 6.8-1.4 9.3 1.2z" />
			<path id="Layer" class="s7" d="m407.8 825.4c6.2 3.9 6.4 10 5.2 16.5c-0.5 2.8 0.3-2.5 0.1-0.6c-0.1 1.3-0.3 2.6-0.5 3.8c-0.1 0.9-0.3 1.8-0.4 2.7c0.2-2.7 0.3-3.4 0.3-2.2c-0.1 0.3-0.1 0.7 0 1c-0.3 1.6-0.5 3.2-0.7 4.8c-1.1 7.8-10.5 12.2-17.4 11.3c-7.4-1-14-7.6-13.7-15.5c0.3-7.8 4.7-13.5 11.3-17.3c1.3-0.7 2.5-1.3 3.8-2c0.6-0.2 2.6-1.6 0.4 0c0.4-0.3 3.9-3.1 1.6-1.1c2.7-2.4 6.7-3.3 10-1.4z" />
			<path id="Layer" class="s7" d="m399.3 896.3c3.5 0.5 6.1 2.9 7.2 6.2c1.4 4.4 1.5 10.2 0.1 14.5c-1.1 3.4-2.5 6.7-5.2 9.1c-3.8 3.6-8.1 3.9-13.1 3.2c-4.5-0.6-8.2-6.2-8-10.5c0.1-3 0.5-5.6 2.2-8.2c1.2-1.9 2.8-3.4 4.3-5.1c0.6-0.7 2.7-2.2 2.9-3.1c-0.8 1-0.9 1.2-0.5 0.6q0.3-0.4 0.6-0.9c0.3-0.5 0.6-1 0.8-1.6c1.3-3.1 5.5-4.6 8.7-4.2z" />
			<path id="Layer" class="s7" d="m419.8 955.9c2.1 5.6 2.4 11.1 1.2 17c-1.2 5.7-1.4 12.9-6.4 16.8c-4.7 3.7-12 5.1-16.5 0c-6.3-7-4.8-15.6 0.6-22.6c2.8-3.6 6.6-7 8.3-11.2c2.5-6.1 10.3-6.4 12.8 0z" />
			<path id="Layer" class="s7" d="m378.4 1006.3c3.5 0.5 5.9 2.9 7 6.1c1.8 5 0.8 10.5-0.8 15.3c-2.1 6.6-5.9 13.9-13.4 15.3c-7.9 1.5-13.5-3.3-14.4-11c-0.6-5.5 2.7-11.8 6.5-15.6c1.7-1.7 3.7-3 5.6-4.4c-1.2 0.9 0.2-0.1 0.6-0.6c0.9-1.1-0.5 1.2 0.4-1c1.3-3.1 5.4-4.4 8.5-4.1z" />
			<path id="Layer" class="s7" d="m429.3 1033.2c2.5 4.7 0.6 9.3-2.1 13.4c-0.5 0.8-1 1.5-1.5 2.3c-0.4 0.7-0.9 1.7-0.3 0.4c0.8-1.7-2.2 5-1 2.5c-0.9 1.9-0.2-1.2 0 0.8c0.7 6.8-6.6 11.7-12.6 10.9c-6.2-0.9-11.3-7.5-9.2-13.9c1.5-4.7 4.6-8.1 8.3-11.2c1.9-1.6 2.5-1.8 4-3.1c-0.1 0.1 1.8-1.8 1.1-0.9c0.7-0.8 1.2-1.8 2-2.6c3.1-3.2 9.2-2.6 11.3 1.4z" />
			<path id="Layer" class="s7" d="m468.7 1031.6c2.2 5.3 2.3 9.8 1.4 15.4c0 0.6-0.6 2-0.4 2.6c0.2-1.8 0.2-2 0.1-0.7q0 0.6 0 1.2c-0.4 6.1-1.9 9.5-7 13.1c-5.8 4.3-13.7 0.7-17.3-4.5c-0.1-0.2-0.3-0.4-0.4-0.6c-2.5-3.7-2.4-9.7 0-13.4c1.9-2.8 4.1-5.3 6.5-7.6q0.8-0.8 1.5-1.5c0.1-0.1 1.3-1.4 0.6-0.6c-0.6 0.9 0.7-1 0.7-1.1c-0.4 0.9-0.1 0 0-0.4c1.6-6.1 11.7-8.3 14.3-1.9z" />
			<path id="Layer" class="s7" d="m504.3 1008c3.8 2 5.4 6.8 4.4 10.7c-2 8-4.5 17.5-13.8 19.7c-5.5 1.2-10.7-0.9-13.7-5.6c-3-4.8-1.5-10.7 1.9-14.7c0.8-0.9 0.4-0.4-1.1 1.5c0.7-1 1.5-2 2.3-2.9c1-0.9 2.2-1.7 3.4-2.4c0.5-0.3 0.9-0.6 1.3-0.9c-3.1 1.9-1.3 1-0.5 0.3c1.6-1.3 3-2.8 4.4-4.3c3-3.1 7.7-3.4 11.4-1.4z" />
			<path id="Layer" class="s7" d="m460 991c3.7 1.6 5.5 4.8 5.8 8.6c0.1 1.7-0.2 3.4-0.5 5c-0.4 2.6-1.7 4.8-3.4 6.9c-3.8 4.6-10.4 6.8-15.8 3.5c-5.6-3.4-6.6-10.7-3.3-16c1.1-1.9 3.7-4.5 5.7-5.5c0.8-0.5 1.6-0.8 2.4-1.4c-0.7 0.5-1.3 1-2 1.5c0.3-0.3 0.6-0.5 0.9-0.8c2.7-2.7 6.8-3.4 10.2-1.8z" />
			<path id="Layer" class="s7" d="m458.2 807.2c-0.8 3.2-1.9 6.2-2.6 9.4c-1.2 5.7-2.8 9.8-8 13.2c-9.4 6.1-21.9-4.1-18.8-14.5c2.2-7.5 8.9-11.9 14.3-17c6.6-6.3 17.3 0 15.1 8.9z" />
			<g id="Layer" style="opacity: .7">
				<g id="Layer" style="opacity: .7">
					<path id="Layer" class="s3" d="m1045.7 400.2c0.7 2.5-3.2 6.6-9.8 12.9c-2.8 2.7-5.4 5.2-6.4 6.7c-8.4 12.1-16.2 28.1-20.4 41.8c-2.2 7.1-5 14.1-7.6 20.9c-3.7 9.5-7.6 19.3-9.9 29.3c-2.2 9.5-2.8 19.3-1.8 29.1c0.3 2.6 0.4 5.4 0.6 8.2c0.4 6.5 0.9 13.3 2.3 19.1c5.7 22.4 25.1 51.8 43.4 65.6l4.5 3.4c16.9 12.8 34.3 26 53.8 33.9c14.3 5.8 33.5 12.3 54.6 11.2l3-0.1c12.5-0.6 25.4-1.2 37.8-0.8c2.1 0.1 4.3 0.2 6.4 0.3c7.2 0.4 14.6 0.9 21.8-0.4c38.1-6.9 70.2-44 79.1-55.3l1.8 1.4c-9 11.4-41.6 49-80.5 56.1c-7.4 1.3-15 0.9-22.3 0.5c-2.1-0.1-4.3-0.3-6.4-0.3c-12.4-0.5-25.2 0.1-37.6 0.8l-3 0.1c-21.6 1-41.1-5.5-55.6-11.4c-19.7-8-37.3-21.3-54.3-34.2l-4.5-3.4c-18.6-14-38.4-44-44.2-66.9c-1.5-6-2-12.9-2.4-19.5c-0.2-2.8-0.4-5.6-0.6-8.2c-1-10-0.4-20.1 1.9-29.8c2.3-10.1 6.2-20 10-29.6c2.7-6.8 5.4-13.7 7.6-20.7c4.3-13.8 12.2-30.1 20.7-42.4c1.2-1.7 3.9-4.3 6.7-7c3.3-3.2 9.5-9.1 9.2-10.6z" />
				</g>
				<g id="Layer" style="opacity: .7">
					<path id="Layer" class="s3" d="m1145.7 507.7l1.7 1.5c-4.6 5-7.1 11.1-6.6 16.2c0.3 3.8 2.2 7 5.5 9.6c4.7 3.6 13.4 6.2 19 4.2c2.8-1 4.6-3.1 5.3-6.3l2.2 0.5c-0.9 3.9-3.2 6.6-6.8 7.9c-6.4 2.3-16-0.5-21.1-4.5c-3.9-3-6-6.7-6.4-11.2c-0.5-5.7 2.1-12.3 7.2-17.9z" />
				</g>
				<g id="Layer" style="opacity: .7">
					<path id="Layer" class="s3" d="m1132.1 497.8l1.4 1.7c-5.6 4.6-6 13.5-6.3 20.6c0 1-0.1 1.9-0.1 2.9c-0.7 11.1 4.3 15.8 15.1 21.8c6.2 3.4 25.6 9.2 35 4.7c2.9-1.4 4.5-3.5 5-6.5l2.2 0.4c-0.6 3.7-2.8 6.5-6.3 8.2c-10 4.8-29.7-0.6-37.1-4.7c-11.4-6.3-17-11.8-16.2-23.9c0.1-0.9 0.1-1.9 0.1-2.8c0.4-7.7 0.8-17.1 7.2-22.4z" />
				</g>
				<g id="Layer" style="opacity: .7">
					<path id="Layer" class="s3" d="m1125.5 484.3l1.6 1.6c-7 7.1-12.7 17.8-14.9 27.8c-3.3 14.9-2.5 24 10.9 34.7c13.3 10.8 47.1 32.4 74 1.6l1.7 1.5c-19.8 22.8-47.9 22.3-77.1-1.3c-14.1-11.5-15.1-21.5-11.7-37c2.3-10.4 8.2-21.5 15.5-28.9z" />
				</g>
				<g id="Layer" style="opacity: .7">
					<path id="Layer" class="s3" d="m1115.8 468.6c-8.7 16.3-13.6 34.9-13 49.6c0.7 19.5 8 31.4 25.2 41c2.2 1.3 4.6 2.7 7.1 4.1c11.4 6.8 25.7 15.2 37.9 15.5c15.4 0.4 31-7 41.7-19.7l1.7 1.5c-11.2 13.3-27.4 21-43.5 20.5c-12.8-0.3-27.3-8.9-39-15.8c-2.5-1.5-4.8-2.9-7-4.1c-17.9-10.1-25.5-22.5-26.3-42.9c-0.6-15.1 4.4-34 13.3-50.7z" />
				</g>
				<g id="Layer" style="opacity: .7">
					<path id="Layer" class="s3" d="m1106.6 460.3c-0.6 2.8-2.3 5.7-3.9 8.6c-1.5 2.6-3 5.3-3.7 7.8c-1.1 3.9-1.8 8.3-2.4 12.5c-0.4 2.5-0.8 5.1-1.3 7.6c-2.8 14.2-4.9 35 0.8 53.5c3.7 11.8 16.1 22.7 33.2 29.1c1.8 0.7 3.6 1.4 5.5 2.1c15.6 6 31.7 12.3 47.8 7.2l2-0.6c15.1-4.7 32.3-10 42.4-22.4l1.8 1.4c-10.5 12.9-28 18.3-43.5 23.1l-2 0.6c-16.8 5.2-33.3-1.1-49.3-7.3q-2.7-1.1-5.4-2.1c-17.8-6.7-30.7-18.1-34.6-30.6c-5.9-18.9-3.7-40.1-0.9-54.6c0.5-2.4 0.9-5 1.2-7.5c0.7-4.3 1.3-8.8 2.5-12.8c0.8-2.8 2.4-5.6 3.9-8.3c1.6-2.8 3.1-5.5 3.6-8z" />
				</g>
				<g id="Layer" style="opacity: .7">
					<path id="Layer" class="s3" d="m1100.1 445.1c0.2 0.9-0.6 2.5-4.6 10.2c-1.4 2.6-2.6 5.1-3.2 6.4c-1.6 3.5-3.3 6.8-5 10c-3.7 7-7.1 13.5-8.4 21.8c-4.9 32.4-3.4 54.4 4.6 67.1c7.9 12.5 27.2 25.4 42.2 31.5c22.4 9.2 44.5 17.1 68.2 11.9c8.2-1.8 15.4-6.3 22.1-10.8c6.4-4.3 18.1-12.7 24-20.3l1.8 1.4c-6.1 7.8-18 16.4-24.5 20.8c-6.9 4.6-14.3 9.3-22.9 11.2c-24.3 5.4-47.7-3-69.5-12c-15.3-6.3-35.1-19.5-43.2-32.4c-8.3-13.2-9.9-35.6-4.9-68.6c1.3-8.6 4.9-15.4 8.6-22.5c1.7-3.2 3.4-6.4 4.9-9.9c0.6-1.4 1.9-3.9 3.3-6.5c1.7-3.2 4.2-8.1 4.3-9z" />
				</g>
				<g id="Layer" style="opacity: .7">
					<path id="Layer" class="s3" d="m1090.9 440c-3.3 7.2-7.3 14.4-11.6 22.1c-5 9-10.1 18.3-14 27.4c-13.7 32.1-13.7 59.9-0.1 82.8c11.1 18.5 40.7 27.7 62.4 34.4c1.9 0.6 3.7 1.1 5.4 1.7c1.8 0.6 3.6 1.2 5.6 1.8c18.2 5.9 43.2 14 59.9 6.7c16.6-7.2 41.2-21.6 55.8-36l1.6 1.6c-14.8 14.6-39.7 29.1-56.5 36.4c-17.5 7.6-42.9-0.6-61.5-6.6c-1.9-0.6-3.8-1.2-5.5-1.8c-1.7-0.5-3.5-1.1-5.4-1.7c-22-6.8-52.2-16.2-63.7-35.4c-14.1-23.5-14.1-52-0.1-84.8c3.9-9.2 9.1-18.6 14.1-27.6c4.2-7.7 8.3-14.9 11.5-22z" />
				</g>
				<g id="Layer" style="opacity: .7">
					<path id="Layer" class="s3" d="m1086.8 429.6l-1.1 1.8c-11.9 18.7-23.1 36.4-31.2 57.9l-1.3 3.4c-4.1 10.9-8 21.1-8.1 33.1c-0.1 12.3 1.9 22.8 4.3 34.3l0.1 0.5c2.3 11 4 19 12.5 27.1c9.7 9.3 21.9 15.4 33.7 21.3l3.9 1.9c25.2 12.8 59.8 30.4 93.1 25.6c1.8-0.3 3.8-0.5 5.7-0.7c6.2-0.7 12.7-1.4 17.8-3.7c3.3-1.5 6.3-4.1 9.1-6.6c2-1.8 4.1-3.6 6.3-5.1c2.8-1.8 5.9-3.7 9.1-5.7c10.3-6.3 21.9-13.4 28.4-21.8l1.8 1.4c-6.7 8.6-18.6 15.9-29 22.3c-3.2 2-6.3 3.9-9 5.7c-2.1 1.4-4 3.1-6.1 4.9c-3 2.6-6.1 5.4-9.7 7c-5.5 2.5-12.1 3.2-18.5 3.9c-2 0.2-3.9 0.4-5.7 0.7c-34 4.8-69-12.9-94.5-25.9l-3.8-1.9c-11.9-6-24.2-12.2-34.2-21.7c-9-8.5-10.7-16.8-13.1-28.2l-0.1-0.5c-2.5-11.6-4.5-22.3-4.4-34.8c0.1-12.3 4.1-22.8 8.3-33.8l1.3-3.4c8.1-21.7 19.4-39.5 31.4-58.3l1.1-1.8z" />
				</g>
				<g id="Layer" style="opacity: .7">
					<path id="Layer" class="s3" d="m1073.4 415.8c-5.2 12.3-11.3 24.7-17.3 36.7c-8 16.2-16.2 32.9-22.6 49.8c-8.8 23.6-4.8 58 9.4 80c19.1 29.7 40.2 47.2 70.7 58.5c26.5 9.8 59.4 14.6 92.7 13.4c31.9-1.2 54.6-23.5 76.9-48.3l1.7 1.5c-22.7 25.1-45.7 47.8-78.5 49c-33.6 1.2-66.8-3.6-93.6-13.5c-30.9-11.5-52.4-29.2-71.8-59.4c-14.5-22.6-18.7-57.9-9.6-82.1c6.4-17 14.7-33.8 22.6-50c5.9-12 12-24.4 17.2-36.6z" />
				</g>
				<g id="Layer" style="opacity: .7">
					<path id="Layer" class="s3" d="m1066.1 404.2c-1.1 4.9-4.8 9.4-8.3 13.8c-1.5 1.8-2.9 3.6-4.1 5.3c-5.2 7.4-9.3 15.9-13.2 24c-0.8 1.7-1.7 3.4-2.5 5.1c-1.1 2.3-2.3 4.6-3.4 6.9c-7.5 14.8-15.3 30.1-17.2 46.5c-0.7 5.7-2.4 10.6-4.1 15.5c-0.9 2.5-1.8 5.2-2.6 7.9c-2.3 8.3-2 20.3-1.7 26.7c1.5 26.6 21.3 50.3 29.8 59.3c6.2 6.6 13.8 11.5 21.1 16.3c1.7 1.1 3.4 2.3 5.1 3.4c3.6 2.4 7.1 5.2 10.4 7.8c5.3 4.2 10.9 8.6 17 11.7c17.9 9 37 10.5 51.6 10.7c8 0.1 16-0.7 23.7-1.6c10.4-1.1 21.1-2.3 31.9-1.1c11.1 1.2 20.1 1.5 30.9-1.1c8.6-2 14.8-7.2 21.5-12.8c2.6-2.2 5.3-4.5 8.2-6.5c4.4-3.2 8.8-7.5 13.1-11.8c6.4-6.4 13.1-13 20.3-16l0.9 2.1c-6.8 2.9-13.3 9.3-19.5 15.5c-4.3 4.3-8.8 8.8-13.4 12c-2.8 2-5.5 4.2-8.1 6.4c-6.5 5.5-13.3 11.1-22.4 13.2c-11.1 2.6-20.6 2.3-31.6 1.1c-10.5-1.2-21.2 0-31.4 1.1c-7.8 0.8-15.9 1.7-24 1.6c-14.9-0.2-34.3-1.7-52.6-10.9c-6.3-3.2-11.9-7.6-17.4-11.9c-3.3-2.6-6.7-5.3-10.3-7.7c-1.7-1.1-3.4-2.3-5.1-3.4c-7.4-4.9-15.1-9.9-21.5-16.7c-8.6-9.2-28.8-33.4-30.4-60.7c-0.4-6.5-0.6-18.8 1.8-27.4c0.8-2.8 1.7-5.4 2.6-8c1.7-4.9 3.4-9.6 4-15c2-16.8 9.8-32.3 17.4-47.3c1.2-2.3 2.3-4.6 3.4-6.8c0.8-1.7 1.7-3.4 2.5-5.1c4-8.2 8.2-16.7 13.4-24.3c1.3-1.8 2.8-3.7 4.2-5.5c3.4-4.1 6.9-8.4 7.9-12.8z" />
				</g>
			</g>
			<path id="Layer" class="s6" d="m924 656c-1.6-2.7-0.5-5.8 1.9-7.4c0.3-0.2 1.1-0.9 0.4-0.3c0.3-0.2 0.6-0.4 0.9-0.7c0.5-0.4 1-0.9 1.5-1.4c0.2-0.2 1.6-1.9 0.9-1c0.5-0.6 0.9-1.2 1.3-1.9c0.4-0.6 0.8-1.3 1.1-2c0.2-0.3 0.3-0.7 0.5-1c0.4-0.8-0.4 1.2 0.1-0.2c0.5-1.4 1-2.8 1.3-4.2c0.1-0.3 0.1-0.7 0.2-1.1c0.2-1.4 0 0.6 0-0.2c0.1-0.8 0.2-1.5 0.2-2.3c0.1-0.8 0-1.5 0-2.3c0-0.4-0.1-0.8-0.1-1.2c-0.1-0.5-0.1-0.4 0 0.1c-0.3-1.5-0.6-3-1.1-4.5c0 0.1-0.5-1.3-0.2-0.6c0.3 0.7-0.2-0.5-0.3-0.6c-0.3-0.7-0.7-1.3-1.1-2c-1.5-2.5-0.6-5.9 1.9-7.4c2.6-1.5 5.9-0.6 7.4 1.9c8.6 14 4 33.2-9.4 42.4c-2.4 1.6-6 0.4-7.4-2.1z" />
			<path id="Layer" class="s6" d="m899.2 628.6c-2.3 1.5-6.3 0.7-7.4-1.9c-4.1-9.4-8.6-20.5-4.4-30.7c1.1-2.8 3.5-4.5 6.6-3.8c2.6 0.6 4.9 4 3.8 6.6c-0.4 1-0.8 2-1 3.1c-0.1 0.3-0.1 0.6-0.2 0.9c-0.1 0.6-0.1 0.6 0-0.1c-0.1 0.3-0.1 1.1-0.1 1.4c0 1.1 0 2.1 0.1 3.2c0.1 0.6 0.1 0.6 0-0.1c0 0.3 0 0.6 0.1 0.9c0.1 0.5 0.2 0.9 0.3 1.4c0.5 2.2 1.1 4.3 1.9 6.4c0.4 1 0.8 2.1 1.2 3.1c0.6 1.5-0.4-0.9 0.2 0.5c0.3 0.5 0.5 1.1 0.8 1.7c1.2 2.7 0.7 5.6-1.9 7.4z" />
			<path id="Layer" class="s6" d="m874.8 670.8c-3-0.7-4.4-3.9-3.8-6.6c0.3-1.4 0.6-2.9 0.9-4.3c0.1-0.6 0.2-1.3 0.3-1.9c-0.1 0.6 0 0.5 0 0c0-0.4 0.1-0.7 0.1-1c0.1-1.4 0.1-2.7 0-4.1c0-0.1-0.1-1.1 0-0.5c0.1 0.6-0.1-0.3-0.1-0.4c-0.1-0.5-0.3-0.9-0.4-1.4q-0.1-0.4-0.3-0.9c-0.3-0.7-0.1 0.1 0.1 0.3c-0.3-0.2-0.5-1-0.7-1.3c-0.2-0.3-0.8-0.9-0.8-1.2c0.1 0.4 0.7 0.8 0.1 0.1c-0.2-0.2-0.3-0.3-0.5-0.5c-0.2-0.2-0.3-0.3-0.5-0.5c-0.1-0.1-0.7-0.6-0.1-0.1c0.6 0.5-0.1 0-0.2-0.1c-0.2-0.2-0.4-0.3-0.6-0.4c-0.2-0.1-0.6-0.2-0.8-0.4c0.2 0.2 1 0.4 0.3 0.2c-0.5-0.1-0.9-0.2-1.4-0.3c-3-0.5-4.4-4-3.8-6.6c0.7-3 3.8-4.3 6.6-3.8c6.2 1.1 10.6 6.4 12.6 12c2.4 6.4 0.9 13.6-0.5 20.1c-0.6 3-3.9 4.4-6.5 3.6z" />
			<path id="Layer" class="s6" d="m861 703.3c-0.3 1.3-1.4 2.5-2.5 3.2c-1.1 0.6-2.9 1-4.1 0.5c-4.6-1.7-8.8-4.4-12-8.2c-3.2-3.7-5.6-8.2-6.5-13c-0.5-3 0.8-5.6 3.8-6.6c1.2-0.5 2.9-0.2 4.1 0.5c1.1 0.6 2.3 1.9 2.5 3.2c0.3 1.6 0.8 3.1 1.4 4.6c-0.1-0.4-0.3-0.9-0.5-1.3c0.8 1.8 1.9 3.6 3.1 5.2c-0.2-0.4-0.5-0.7-0.8-1.1c1.3 1.6 2.7 3.1 4.3 4.3c-0.4-0.2-0.7-0.5-1.1-0.8c1.5 1.2 3.2 2.1 5 2.9c-0.4-0.1-0.9-0.3-1.3-0.5c0.3 0.2 0.6 0.3 0.9 0.4c2.8 1 4.5 3.5 3.7 6.7z" />
			<path id="Layer" class="s6" d="m918.6 706.3c-1.4 2.6-4.9 3.2-7.4 1.9c-0.5-0.2-0.9-0.5-1.4-0.7c-0.2-0.1-0.5-0.2-0.7-0.3c0.7 0.3 0.8 0.3 0.2 0.1c-0.9-0.3-1.7-0.6-2.6-0.8c-0.9-0.3-1.8-0.4-2.7-0.6q-0.9-0.2 0.3 0c-0.3 0-0.5-0.1-0.8-0.1c-0.5 0-0.9-0.1-1.4-0.1c-1 0-1.9 0-2.9 0c-0.4 0-0.8 0.1-1.2 0.1c-0.3 0-0.5 0.1-0.8 0.1q1.2-0.2 0.3 0c-1.9 0.3-3.8 0.8-5.6 1.5c-2.8 1.1-5.8-1.3-6.6-3.8c-0.5-1.2-0.2-2.9 0.5-4.1c0.7-1.3 1.9-2 3.2-2.5c8.8-3.4 19.1-2.5 27.4 1.9c2.7 1.4 3.3 4.8 2.2 7.4z" />
			<path id="Layer" class="s6" d="m887.7 734c1.7 2.6 0.4 5.8-1.9 7.4c-8.7 5.8-19.8 7.5-29.9 4.9c-3-0.7-4.4-3.8-3.8-6.6c0.6-2.9 3.9-4.5 6.6-3.8c1 0.3 2.2 0.7 3.3 0.7c-1.4-0.1 0.4 0 0.7 0c0.5 0.1 1 0.1 1.5 0.1c1.1 0.1 2.2 0.1 3.2 0c0.6-0.1 1.2-0.1 1.7-0.2c-1.4 0.4 0.1 0 0.4-0.1q3.3-0.6 6.3-1.8c1.1-0.4-0.8 0.4 0.3-0.1c0.5-0.2 1-0.4 1.5-0.7c1-0.5 2-1.1 2.9-1.7c2.5-1.7 5.9-0.4 7.2 1.9z" />
			<path id="Layer" class="s6" d="m921.9 738.7c-1.1-1-1.5-2.4-1.6-3.8c0-1.3 0.7-2.9 1.6-3.8c1.1-1.1 2.3-1.4 3.8-1.6c0.9-0.1 1.7-0.2 2.6-0.3c-0.4 0.1-0.9 0.1-1.4 0.2c4.8-0.6 9.6-1.6 14.3-2.9c2.9-0.8 5.7 1 6.6 3.8c0.9 2.7-1.1 5.9-3.8 6.6c-6 1.6-12.1 2.7-18.3 3.4c-1.4 0.2-2.8-0.6-3.8-1.6z" />
			<path id="Layer" class="s6" d="m913.7 587.6c-1.3 0-2.9-0.7-3.8-1.6c-1.1-1.1-1.5-2.3-1.6-3.8q-0.1-1.2-0.3-2.4c0.1 0.4 0.1 0.9 0.2 1.4c-0.4-2.7-1-5.4-1.7-8q-0.5-2-1.2-3.9c-0.2-0.6-0.5-1.3-0.7-1.9c-0.1-0.4-0.3-0.7-0.4-1c-0.4-1 0.5 1 0 0c-0.6-1.4-0.8-2.6-0.5-4.1c0.3-1.4 1.4-2.5 2.5-3.2c1.1-0.7 2.8-0.9 4.1-0.5c1.1 0.3 2.7 1.3 3.2 2.5c2.9 6.8 4.8 13.8 5.5 21.2c0.3 2.9-2.7 5.2-5.3 5.3z" />
			<path id="Layer" class="s6" d="m860.9 585.2c-2.5 1.6-6 0.5-7.4-1.9c-4.4-7.7-5.5-17.3-2.7-25.8c0.9-2.9 3.6-4.5 6.6-3.8c2.8 0.6 4.7 3.9 3.8 6.6c-0.3 0.9-0.6 1.9-0.8 2.8c-0.1 0.4-0.1 0.7-0.2 1.1c0 0.2-0.1 0.5-0.1 0.7c0.2-0.9 0.2-1 0.1-0.4c-0.1 1.7-0.2 3.4 0 5.2c0.1 0.1 0.1 0.3 0.1 0.5c0.1 0.5 0.1 0.4 0-0.4c0 0 0.3 1.3 0.3 1.4c0.1 0.9 0.3 1.7 0.6 2.5c0.2 0.5 0.3 0.9 0.5 1.4c0.1 0.2 0.1 0.3 0.2 0.5c0.1 0.4 0.1 0.3-0.2-0.4c0 0.3 0.4 1 0.6 1.3c0.2 0.5 0.5 0.9 0.7 1.3c1.5 2.6 0.6 5.8-2.1 7.4z" />
			<path id="Layer" class="s6" d="m837 609.2c1.6 2.5 0.5 5.9-1.9 7.4c-6.8 4.2-14.4 7.4-22.2 9.3c-2.9 0.7-5.7-1-6.6-3.8c-0.8-2.7 1.1-5.9 3.8-6.6q2.7-0.6 5.4-1.5c1.7-0.5 3.6-1.1 5.2-1.9c-1.4 0.7 0.1-0.1 0.4-0.2c0.3-0.2 0.7-0.3 1-0.5c0.9-0.4 1.8-0.8 2.7-1.3c1.7-0.9 3.3-1.8 4.9-2.8c2.6-1.6 5.9-0.5 7.3 1.9z" />
			<path id="Layer" class="s6" d="m812.7 657c1.3 0.6 2.1 1.9 2.5 3.2c0.5 1.2 0.2 2.9-0.5 4.1c-0.7 1.3-1.8 2-3.2 2.5c-0.1 0.1-0.3 0.1-0.4 0.2c0.4-0.1 0.9-0.3 1.3-0.5c-2.1 0.9-4.1 2-5.9 3.4c0.4-0.2 0.7-0.5 1.1-0.8c-1.9 1.5-3.6 3.1-5 5c0.2-0.4 0.5-0.7 0.8-1.1c-1 1.3-1.9 2.6-2.6 4.1c-0.6 1.3-1.9 2.1-3.2 2.5c-1.3 0.5-2.9 0.2-4.1-0.5c-1.2-0.6-2.2-2-2.5-3.2c-0.4-1.4-0.2-2.8 0.5-4.1c1.7-3.2 4-6.2 6.7-8.7c3.1-2.8 6.5-4.8 10.4-6.4c1.3-0.5 3 0 4.1 0.3z" />
			<path id="Layer" class="s6" d="m816.4 708.6c1.4 0 2.8 0.7 3.8 1.6c1 0.9 1.6 2.5 1.6 3.8c0 1.3-0.6 2.9-1.6 3.8q-2.9 2.4-5.1 5.4c0.2-0.4 0.5-0.7 0.8-1.1c-1.9 2.6-3.6 5.3-4.8 8.3c0.1-0.4 0.3-0.9 0.5-1.3c-0.2 0.3-0.3 0.6-0.4 0.9c-0.6 1.4-1.3 2.4-2.5 3.2c-1.2 0.7-2.7 0.8-4.1 0.5c-1.3-0.3-2.5-1.4-3.2-2.5c-0.6-1-1-2.9-0.5-4.1c2.5-6.5 6.4-12.3 11.7-16.9c1.1-1 2.3-1.5 3.8-1.6z" />
			<path id="Layer" class="s6" d="m843.6 773.3c1.4 0.3 2.5 1.4 3.2 2.5c0.7 1.1 0.9 2.8 0.5 4.1c-0.3 1.1-1.3 2.7-2.5 3.2c-6.2 2.7-12.8 4.2-19.6 3.9c-3-0.2-5.3-2.4-5.4-5.4c-0.1-2.8 2.6-5.5 5.4-5.4c2.3 0.1 4.5 0 6.7-0.3c-0.4 0.1-0.9 0.1-1.4 0.2c3.3-0.4 6.4-1.2 9.4-2.5c-0.4 0.1-0.9 0.3-1.3 0.5c0.2-0.2 0.5-0.3 0.8-0.4c1.4-0.6 2.7-0.9 4.2-0.4z" />
			<path id="Layer" class="s6" d="m772 754.7c-2.7 0.8-5.9-1.1-6.6-3.8c-2.7-10.4-3.9-21.3-3.6-32c0.1-3 2.4-5.3 5.4-5.4c2.9-0.1 5.5 2.6 5.4 5.4c-0.3 10.4 0.6 19.3 3.2 29.1c0.8 2.9-0.9 5.7-3.8 6.7z" />
			<path id="Layer" class="s6" d="m884.8 806.2c-3.1-0.7-4.3-3.8-3.8-6.6c0.2-1.1 0.3-2.3 0.5-3.4c0.1-0.5 0.1-1 0.2-1.5c0.2-1.2-0.1 0.8 0.1-0.5c0.3-2 0.5-3.9 0.7-5.9c0.4-4.1 0.7-8.2 0.8-12.3c0.1-3 2.4-5.3 5.4-5.4c2.9-0.1 5.5 2.6 5.4 5.4c-0.3 8.8-1.2 17.6-2.6 26.3c-0.5 2.9-4 4.3-6.7 3.9z" />
			<path id="Layer" class="s6" d="m755.2 771.3c-0.6 1.2-2 2.2-3.2 2.5c-1.4 0.4-2.8 0.1-4.1-0.5c-5.1-2.5-10-5.4-14.5-8.8c-1.2-0.9-2-1.8-2.5-3.2c-0.5-1.3-0.2-2.9 0.5-4.1c0.6-1.2 2-2.2 3.2-2.5c1.2-0.4 3-0.3 4.1 0.5c4.6 3.4 9.4 6.3 14.5 8.8c2.7 1.3 3.2 5 2 7.3z" />
			<path id="Layer" class="s6" d="m720.9 714.4c-2.2-2-1.9-5.6 0-7.6c1.6-1.7 3.2-3.5 4.7-5.3c0.3-0.4 0.7-0.9 1.1-1.4c0.4-0.5 0.2-0.2-0.1 0.1c0.2-0.1 0.3-0.4 0.5-0.6c0.7-0.9 1.3-1.9 2-2.8q4.1-5.7 7.2-12c1.4-2.7 5-3.2 7.4-1.9c2.6 1.5 3.2 4.9 1.9 7.4c-4.5 8.9-10.3 17.1-17.1 24.3c-2 2.2-5.5 1.9-7.6-0.2z" />
			<path id="Layer" class="s6" d="m694.7 712.2c-0.3 1.3-1.4 2.5-2.5 3.2c-1.2 0.7-2.7 0.8-4.1 0.5c-7.5-1.5-14.6-5.8-19.3-11.8c-1-1.2-1.5-2.3-1.6-3.8c0-1.4 0.7-2.8 1.6-3.8c0.9-1 2.5-1.6 3.8-1.6c1.2 0 3 0.6 3.8 1.6q2.2 2.8 5.1 5.1c-0.4-0.2-0.7-0.5-1.1-0.8c1.9 1.4 4 2.6 6.2 3.6c-0.4-0.1-0.9-0.3-1.3-0.5c1.8 0.7 3.7 1.3 5.6 1.7c2.9 0.6 4.3 4 3.8 6.6z" />
			<path id="Layer" class="s6" d="m695.3 676.1c-1.2 0.7-2.7 0.8-4.1 0.5c-1.3-0.3-2.5-1.4-3.2-2.5c-0.6-1.1-0.9-2.8-0.5-4.1c1.6-4.6 3.2-9.1 4.8-13.7c0.5-1.4 1.3-2.4 2.5-3.2c1.2-0.7 2.7-0.8 4.1-0.5c1.3 0.3 2.5 1.4 3.2 2.5c0.6 1.1 0.9 2.8 0.5 4.1c-1.6 4.6-3.2 9.1-4.8 13.7c-0.5 1.4-1.2 2.4-2.5 3.2z" />
			<path id="Layer" class="s6" d="m776.6 656.1c-2.4 1.6-6 0.6-7.4-1.9c-0.8-1.4-1.6-2.7-2.6-4c0.2 0.4 0.5 0.7 0.8 1.1c-1.6-2.1-3.4-3.9-5.5-5.5c0.4 0.2 0.7 0.5 1.1 0.8c-1.7-1.3-3.5-2.5-5.5-3.4c-1.3-0.6-2.1-1.9-2.5-3.2c-0.5-1.3-0.2-2.9 0.5-4.1c0.6-1.2 2-2.2 3.2-2.5c1.4-0.4 2.8-0.1 4.1 0.5c6.6 3.1 12.1 8.5 15.6 14.8c1.5 2.6 0.6 5.7-1.8 7.4z" />
			<path id="Layer" class="s6" d="m715.3 626.8c-2.7-0.6-4.7-3.9-3.8-6.6c2.1-6 4.1-11.9 6.2-17.8c1-2.9 3.6-4.5 6.6-3.8c2.7 0.6 4.7 3.9 3.8 6.6c-2.1 6-4.1 11.9-6.2 17.8c-1 2.9-3.6 4.5-6.6 3.8z" />
			<path id="Layer" class="s6" d="m791 586.6c-0.1 0.4-0.3 0.9-0.5 1.3c-0.6 1.3-1.9 2.1-3.2 2.5c-1.2 0.5-2.9 0.2-4.1-0.5c-1.1-0.6-2.3-2-2.5-3.2c-0.4-2.3-1-4.6-1.9-6.8c0.1 0.4 0.3 0.9 0.5 1.3c-0.8-1.9-1.7-3.7-2.9-5.3c-0.8-1.1-0.8-2.8-0.5-4.1c0.3-1.4 1.4-2.5 2.5-3.2c1.1-0.7 2.8-0.9 4.1-0.5c1.4 0.4 2.4 1.3 3.2 2.5c2.7 4 4.6 8.7 5.3 13.4c0.3 1 0.3 1.9 0 2.6z" />
			<path id="Layer" class="s6" d="m820.3 556.8c-0.6 1.2-2 2.2-3.2 2.5c-1.4 0.4-2.8 0.2-4.1-0.5c-4.2-2.2-8.5-4.4-12.7-6.6c-2.6-1.4-3.2-4.9-1.9-7.4c0.6-1.2 2-2.2 3.2-2.5c1.4-0.4 2.8-0.2 4.1 0.5c4.2 2.2 8.5 4.4 12.7 6.6c2.6 1.4 3.2 4.9 1.9 7.4z" />
			<path id="Layer" class="s6" d="m746.8 562.4c-0.6 2.8-3.9 4.6-6.6 3.8c-4.2-1.2-7.8-4.2-9.8-8.1c-2-3.9-2.7-8.6-1.3-12.8c0.9-2.9 3.6-4.5 6.6-3.8c2.8 0.6 4.7 3.9 3.8 6.6c-0.2 0.6-0.3 1.2-0.4 1.8c0.1-0.4 0.1-0.9 0.2-1.4q-0.1 1.5 0 3c-0.1-0.4-0.1-0.9-0.2-1.4c0.2 1 0.4 2 0.8 2.9c-0.1-0.4-0.3-0.9-0.5-1.3c0.4 1 1 1.9 1.6 2.8c-0.2-0.4-0.5-0.7-0.8-1.1q0.9 1.2 2.1 2.1c-0.4-0.2-0.7-0.5-1.1-0.8c0.7 0.5 1.4 1 2.2 1.3c-0.4-0.1-0.9-0.3-1.3-0.5c0.4 0.2 0.7 0.3 1.1 0.4c2.9 0.9 4.4 3.8 3.6 6.5z" />
			<path id="Layer" class="s6" d="m863.3 521.5c-1.4-0.3-2.5-1.4-3.2-2.5c-0.7-1.1-0.9-2.8-0.5-4.1c0.4-1.4 1.3-2.4 2.5-3.2c3.2-2.1 6.4-4.3 9.6-6.4c1.2-0.8 2.7-0.8 4.1-0.5c1.4 0.3 2.5 1.4 3.2 2.5c0.7 1.1 0.9 2.8 0.5 4.1c-0.4 1.4-1.3 2.4-2.5 3.2c-3.2 2.1-6.4 4.3-9.6 6.4c-1.2 0.8-2.8 0.9-4.1 0.5z" />
			<path id="Layer" class="s6" d="m929.2 526.9c1.3 0.6 2.1 1.9 2.5 3.2c0.2 0.7 0.3 1.4 0.1 2.1c0 0.7-0.2 1.4-0.6 2c-0.7 1.3-1.9 2.1-3.2 2.5q-3.6 1.2-7.2 2.4c-1.3 0.5-2.9 0.2-4.1-0.5c-1.3-0.6-2.1-1.9-2.5-3.2c-0.2-0.7-0.3-1.4-0.1-2.1c0-0.7 0.2-1.4 0.6-2c0.7-1.3 1.9-2.1 3.2-2.5q3.6-1.2 7.2-2.4c1.4-0.4 2.9-0.1 4.1 0.5z" />
		</g>
	</g>
</svg>